<svg xmlns="http://www.w3.org/2000/svg" viewBox="0 0 1200 630" width="1200" height="630">
<rect width="1200" height="630" fill="#141312"/>
<g fill="none" stroke-linecap="round" stroke-linejoin="round">
<path d="M833.0 278.5L826.3 280.0M837.9 280.0L833.0 278.5M826.0 280.1L820.9 287.0M826.3 280.0L826.0 280.1M837.9 280.0L840.0 280.7M847.0 284.8L840.0 280.7M850.4 287.0L847.0 284.8M820.9 287.0L819.2 294.0M850.4 287.0L851.6 294.0M819.2 294.0L819.9 301.0M847.0 300.6L846.7 301.0M851.6 294.0L847.0 300.6M819.9 301.0L825.1 308.0M840.0 305.4L834.2 308.0M846.7 301.0L840.0 305.4M825.1 308.0L826.0 308.8M833.0 308.5L826.0 308.8M834.2 308.0L833.0 308.5M350.0 377.6L344.3 378.0M352.7 378.0L350.0 377.6M336.0 384.2L335.1 385.0M343.0 378.2L336.0 384.2M344.3 378.0L343.0 378.2M352.7 378.0L357.0 378.8M364.0 382.7L357.0 378.8M366.6 385.0L364.0 382.7M335.1 385.0L336.0 385.6M342.9 392.0L336.0 385.6M366.6 385.0L371.0 389.9M372.9 392.0L371.0 389.9M342.9 392.0L343.0 392.0M350.0 396.9L343.0 392.0M353.2 399.0L350.0 396.9M372.9 392.0L376.5 399.0M353.2 399.0L357.0 401.5M364.0 404.8L357.0 401.5M370.4 406.0L364.0 404.8M376.5 399.0L371.5 406.0M370.4 406.0L371.0 406.1M371.5 406.0L371.0 406.1" stroke="oklch(0.84 0.11 277)" stroke-width="2.37" opacity="0.9"/>
<path d="M903.0 188.6L898.0 189.0M903.8 189.0L903.0 188.6M889.0 195.1L887.9 196.0M896.0 189.3L889.0 195.1M898.0 189.0L896.0 189.3M903.8 189.0L910.0 193.1M912.2 196.0L910.0 193.1M887.9 196.0L883.2 203.0M912.2 196.0L917.0 202.0M917.6 203.0L917.0 202.0M882.0 205.4L877.5 210.0M883.2 203.0L882.0 205.4M917.6 203.0L922.1 210.0M847.0 214.2L842.2 217.0M854.0 212.8L847.0 214.2M861.0 212.7L854.0 212.8M868.0 212.8L861.0 212.7M875.0 211.6L868.0 212.8M877.5 210.0L875.0 211.6M922.1 210.0L924.0 213.2M925.7 217.0L924.0 213.2M833.0 221.9L829.6 224.0M840.0 217.9L833.0 221.9M842.2 217.0L840.0 217.9M925.7 217.0L927.3 224.0M819.0 230.5L818.3 231.0M826.0 226.2L819.0 230.5M829.6 224.0L826.0 226.2M927.3 224.0L926.7 231.0M812.0 235.2L808.8 238.0M818.3 231.0L812.0 235.2M926.7 231.0L924.7 238.0M805.0 242.1L803.2 245.0M808.8 238.0L805.0 242.1M924.0 239.9L921.9 245.0M924.7 238.0L924.0 239.9M803.2 245.0L800.2 252.0M921.9 245.0L919.2 252.0M800.2 252.0L798.3 259.0M917.0 258.5L916.9 259.0M919.2 252.0L917.0 258.5M798.0 260.1L796.6 266.0M798.3 259.0L798.0 260.1M916.9 259.0L914.7 266.0M796.6 266.0L794.8 273.0M914.7 266.0L912.4 273.0M794.8 273.0L793.1 280.0M910.0 279.1L909.6 280.0M912.4 273.0L910.0 279.1M793.1 280.0L791.8 287.0M909.6 280.0L905.7 287.0M791.0 293.1L790.9 294.0M791.8 287.0L791.0 293.1M903.0 290.3L899.4 294.0M905.7 287.0L903.0 290.3M790.9 294.0L790.3 301.0M896.0 296.7L890.4 301.0M899.4 294.0L896.0 296.7M790.3 301.0L790.3 308.0M889.0 302.0L882.6 308.0M890.4 301.0L889.0 302.0M790.3 308.0L790.7 315.0M882.0 308.8L877.7 315.0M882.6 308.0L882.0 308.8M790.7 315.0L791.0 317.5M791.6 322.0L791.0 317.5M877.7 315.0L875.1 322.0M791.6 322.0L793.1 329.0M875.0 322.3L873.5 329.0M875.1 322.0L875.0 322.3M793.1 329.0L795.4 336.0M873.5 329.0L871.6 336.0M795.4 336.0L798.0 341.7M798.7 343.0L798.0 341.7M868.0 342.7L867.8 343.0M871.6 336.0L868.0 342.7M371.0 348.3L366.1 350.0M378.0 348.0L371.0 348.3M385.0 350.0L378.0 348.0M798.7 343.0L805.0 350.0M861.0 347.8L855.0 350.0M867.8 343.0L861.0 347.8M294.0 356.0L292.4 357.0M301.0 354.2L294.0 356.0M308.0 355.2L301.0 354.2M313.9 357.0L308.0 355.2M357.0 354.5L351.9 357.0M364.0 350.8L357.0 354.5M366.1 350.0L364.0 350.8M385.0 350.0L385.0 350.0M392.0 354.3L385.0 350.0M395.5 357.0L392.0 354.3M805.0 350.0L805.0 350.0M812.0 353.1L805.0 350.0M819.0 353.8L812.0 353.1M826.0 353.2L819.0 353.8M833.0 352.0L826.0 353.2M840.0 351.1L833.0 352.0M847.0 351.1L840.0 351.1M854.0 350.3L847.0 351.1M855.0 350.0L854.0 350.3M287.0 361.4L284.6 364.0M292.4 357.0L287.0 361.4M313.9 357.0L315.0 357.3M322.0 359.2L315.0 357.3M329.0 360.2L322.0 359.2M336.0 360.4L329.0 360.2M343.0 359.6L336.0 360.4M350.0 357.7L343.0 359.6M351.9 357.0L350.0 357.7M395.5 357.0L399.0 360.7M401.5 364.0L399.0 360.7M280.0 370.2L279.5 371.0M284.6 364.0L280.0 370.2M401.5 364.0L404.4 371.0M279.5 371.0L276.0 378.0M404.4 371.0L405.9 378.0M276.0 378.0L273.4 385.0M405.9 378.0L406.0 378.5M406.8 385.0L406.0 378.5M273.0 386.6L271.6 392.0M273.4 385.0L273.0 386.6M406.8 385.0L407.6 392.0M271.6 392.0L270.3 399.0M407.6 392.0L408.5 399.0M270.3 399.0L270.5 406.0M408.5 399.0L409.9 406.0M270.5 406.0L272.9 413.0M409.9 406.0L411.6 413.0M272.9 413.0L273.0 413.2M277.8 420.0L273.0 413.2M315.0 419.9L314.8 420.0M322.0 417.6L315.0 419.9M329.0 416.4L322.0 417.6M336.0 417.0L329.0 416.4M343.0 419.7L336.0 417.0M343.6 420.0L343.0 419.7M411.6 413.0L413.0 417.8M413.7 420.0L413.0 417.8M277.8 420.0L280.0 422.3M287.0 426.0L280.0 422.3M294.0 426.3L287.0 426.0M301.0 425.1L294.0 426.3M308.0 422.7L301.0 425.1M314.8 420.0L308.0 422.7M343.6 420.0L350.0 424.1M354.0 427.0L350.0 424.1M413.7 420.0L415.8 427.0M354.0 427.0L357.0 429.6M361.9 434.0L357.0 429.6M415.8 427.0L417.4 434.0M361.9 434.0L364.0 436.1M369.2 441.0L364.0 436.1M417.4 434.0L416.8 441.0M369.2 441.0L371.0 442.7M378.0 447.9L371.0 442.7M378.3 448.0L378.0 447.9M413.0 447.8L412.8 448.0M416.8 441.0L413.0 447.8M378.3 448.0L385.0 451.3M392.0 453.1L385.0 451.3M399.0 453.4L392.0 453.1M406.0 451.9L399.0 453.4M412.8 448.0L406.0 451.9" stroke="oklch(0.84 0.11 277)" stroke-width="2.24" opacity="0.9"/>
<path d="M875.0 139.3L871.3 140.0M882.0 138.5L875.0 139.3M889.0 138.2L882.0 138.5M896.0 138.1L889.0 138.2M903.0 139.0L896.0 138.1M906.2 140.0L903.0 139.0M854.0 146.0L852.5 147.0M861.0 142.8L854.0 146.0M868.0 140.7L861.0 142.8M871.3 140.0L868.0 140.7M906.2 140.0L910.0 141.2M917.0 144.9L910.0 141.2M919.9 147.0L917.0 144.9M847.0 149.8L841.2 154.0M852.5 147.0L847.0 149.8M919.9 147.0L924.0 150.1M928.3 154.0L924.0 150.1M833.0 158.9L829.7 161.0M840.0 154.7L833.0 158.9M841.2 154.0L840.0 154.7M928.3 154.0L931.0 156.7M934.4 161.0L931.0 156.7M819.0 167.4L817.9 168.0M826.0 163.2L819.0 167.4M829.7 161.0L826.0 163.2M934.4 161.0L938.0 165.9M939.4 168.0L938.0 165.9M798.0 173.9L793.4 175.0M805.0 173.5L798.0 173.9M812.0 171.1L805.0 173.5M817.9 168.0L812.0 171.1M939.4 168.0L943.7 175.0M784.0 179.9L782.1 182.0M791.0 175.6L784.0 179.9M793.4 175.0L791.0 175.6M943.7 175.0L945.0 177.3M947.6 182.0L945.0 177.3M777.0 188.0L776.4 189.0M782.1 182.0L777.0 188.0M947.6 182.0L951.0 189.0M776.4 189.0L772.3 196.0M951.0 189.0L952.0 191.4M953.9 196.0L952.0 191.4M770.0 200.6L768.9 203.0M772.3 196.0L770.0 200.6M953.9 196.0L956.0 203.0M768.9 203.0L766.3 210.0M956.0 203.0L957.2 210.0M766.3 210.0L764.4 217.0M957.2 210.0L957.5 217.0M764.4 217.0L763.2 224.0M957.5 217.0L957.1 224.0M763.0 225.6L762.3 231.0M763.2 224.0L763.0 225.6M957.1 224.0L956.2 231.0M762.3 231.0L761.3 238.0M956.2 231.0L955.5 238.0M761.3 238.0L760.2 245.0M955.5 238.0L955.1 245.0M760.2 245.0L759.2 252.0M955.1 245.0L954.9 252.0M759.2 252.0L758.3 259.0M954.9 252.0L954.6 259.0M758.3 259.0L757.7 266.0M954.6 259.0L953.8 266.0M757.7 266.0L757.3 273.0M952.0 273.0L952.0 273.0M953.8 266.0L952.0 273.0M757.3 273.0L757.1 280.0M952.0 273.0L948.5 280.0M757.1 280.0L757.0 287.0M945.0 285.8L944.3 287.0M948.5 280.0L945.0 285.8M757.0 287.0L757.0 294.0M944.3 287.0L940.7 294.0M757.0 294.0L757.1 301.0M938.0 300.0L937.6 301.0M940.7 294.0L938.0 300.0M757.1 301.0L757.3 308.0M937.6 301.0L934.4 308.0M757.3 308.0L757.4 315.0M931.0 313.6L929.9 315.0M934.4 308.0L931.0 313.6M757.4 315.0L757.9 322.0M924.0 321.4L923.2 322.0M929.9 315.0L924.0 321.4M287.0 329.0L286.9 329.0M294.0 325.9L287.0 329.0M301.0 324.6L294.0 325.9M308.0 324.7L301.0 324.6M315.0 326.2L308.0 324.7M322.0 328.5L315.0 326.2M323.4 329.0L322.0 328.5M357.0 328.1L353.0 329.0M364.0 326.8L357.0 328.1M371.0 325.9L364.0 326.8M378.0 325.4L371.0 325.9M385.0 325.2L378.0 325.4M392.0 325.5L385.0 325.2M399.0 326.8L392.0 325.5M404.6 329.0L399.0 326.8M757.9 322.0L759.2 329.0M917.0 327.0L914.8 329.0M923.2 322.0L917.0 327.0M280.0 333.5L277.1 336.0M286.9 329.0L280.0 333.5M323.4 329.0L329.0 331.0M336.0 332.3L329.0 331.0M343.0 331.6L336.0 332.3M350.0 329.8L343.0 331.6M353.0 329.0L350.0 329.8M404.6 329.0L406.0 329.6M413.0 333.7L406.0 329.6M416.4 336.0L413.0 333.7M759.2 329.0L761.0 336.0M910.0 334.3L908.9 336.0M914.8 329.0L910.0 334.3M273.0 339.2L268.6 343.0M277.1 336.0L273.0 339.2M416.4 336.0L420.0 338.6M425.6 343.0L420.0 338.6M761.0 336.0L763.0 342.7M763.1 343.0L763.0 342.7M908.9 336.0L905.3 343.0M266.0 345.2L260.3 350.0M268.6 343.0L266.0 345.2M425.6 343.0L427.0 344.3M432.1 350.0L427.0 344.3M763.1 343.0L765.5 350.0M903.0 348.9L902.6 350.0M905.3 343.0L903.0 348.9M259.0 351.3L253.5 357.0M260.3 350.0L259.0 351.3M432.1 350.0L434.0 353.0M436.3 357.0L434.0 353.0M765.5 350.0L767.8 357.0M902.6 350.0L898.9 357.0M252.0 359.3L249.4 364.0M253.5 357.0L252.0 359.3M436.3 357.0L438.7 364.0M767.8 357.0L770.0 363.6M770.2 364.0L770.0 363.6M896.0 360.7L892.7 364.0M898.9 357.0L896.0 360.7M249.4 364.0L246.5 371.0M438.7 364.0L440.1 371.0M770.2 364.0L773.3 371.0M889.0 367.0L882.9 371.0M892.7 364.0L889.0 367.0M245.0 375.5L244.3 378.0M246.5 371.0L245.0 375.5M440.1 371.0L440.7 378.0M773.3 371.0L777.0 377.4M777.5 378.0L777.0 377.4M875.0 376.2L872.4 378.0M882.0 371.6L875.0 376.2M882.9 371.0L882.0 371.6M244.3 378.0L242.5 385.0M440.7 378.0L441.0 382.2M441.2 385.0L441.0 382.2M777.5 378.0L784.0 385.0M784.1 385.0L784.0 385.0M868.0 381.5L863.5 385.0M872.4 378.0L868.0 381.5M242.5 385.0L240.9 392.0M441.2 385.0L441.8 392.0M784.1 385.0L791.0 389.9M795.8 392.0L791.0 389.9M861.0 387.3L854.3 392.0M863.5 385.0L861.0 387.3M240.9 392.0L239.3 399.0M441.8 392.0L443.0 399.0M795.8 392.0L798.0 392.8M805.0 393.9L798.0 392.8M812.0 393.9L805.0 393.9M819.0 393.5L812.0 393.9M826.0 393.0L819.0 393.5M833.0 393.0L826.0 393.0M840.0 393.6L833.0 393.0M847.0 394.6L840.0 393.6M854.0 392.2L847.0 394.6M854.3 392.0L854.0 392.2M239.3 399.0L238.7 406.0M443.0 399.0L444.8 406.0M238.7 406.0L240.2 413.0M444.8 406.0L446.9 413.0M240.2 413.0L243.7 420.0M446.9 413.0L448.0 417.0M448.8 420.0L448.0 417.0M243.7 420.0L245.0 421.9M249.2 427.0L245.0 421.9M448.8 420.0L450.6 427.0M249.2 427.0L252.0 430.2M255.2 434.0L252.0 430.2M450.6 427.0L452.1 434.0M255.2 434.0L259.0 438.8M260.5 441.0L259.0 438.8M452.1 434.0L453.3 441.0M260.5 441.0L265.2 448.0M453.3 441.0L455.0 448.0M455.0 448.0L455.0 448.0M265.2 448.0L266.0 449.1M271.7 455.0L266.0 449.1M455.0 448.0L457.9 455.0M271.7 455.0L273.0 456.1M280.0 459.2L273.0 456.1M287.0 460.2L280.0 459.2M294.0 460.4L287.0 460.2M301.0 460.3L294.0 460.4M308.0 460.0L301.0 460.3M315.0 459.8L308.0 460.0M322.0 460.2L315.0 459.8M329.0 461.8L322.0 460.2M329.4 462.0L329.0 461.8M457.9 455.0L461.1 462.0M329.4 462.0L336.0 465.4M340.9 469.0L336.0 465.4M461.1 462.0L462.0 465.1M463.3 469.0L462.0 465.1M340.9 469.0L343.0 470.7M348.3 476.0L343.0 470.7M463.3 469.0L462.0 476.0M348.3 476.0L350.0 477.5M356.4 483.0L350.0 477.5M448.0 482.9L446.9 483.0M455.0 480.8L448.0 482.9M462.0 476.0L455.0 480.8M462.0 476.0L462.0 476.0M356.4 483.0L357.0 483.4M364.0 487.6L357.0 483.4M369.9 490.0L364.0 487.6M406.0 488.9L400.9 490.0M413.0 487.2L406.0 488.9M420.0 485.3L413.0 487.2M427.0 483.7L420.0 485.3M434.0 483.4L427.0 483.7M441.0 483.4L434.0 483.4M446.9 483.0L441.0 483.4M369.9 490.0L371.0 490.4M378.0 491.8L371.0 490.4M385.0 492.1L378.0 491.8M392.0 491.5L385.0 492.1M399.0 490.4L392.0 491.5M400.9 490.0L399.0 490.4" stroke="oklch(0.84 0.11 277)" stroke-width="2.11" opacity="0.9"/>
<path d="M847.0 82.5L840.9 84.0M854.0 82.3L847.0 82.5M861.0 83.3L854.0 82.3M863.2 84.0L861.0 83.3M833.0 88.3L829.0 91.0M840.0 84.3L833.0 88.3M840.9 84.0L840.0 84.3M863.2 84.0L868.0 85.7M875.0 88.9L868.0 85.7M879.2 91.0L875.0 88.9M826.0 93.6L820.7 98.0M829.0 91.0L826.0 93.6M879.2 91.0L882.0 92.7M889.0 96.1L882.0 92.7M892.0 98.0L889.0 96.1M819.0 99.7L813.0 105.0M820.7 98.0L819.0 99.7M892.0 98.0L896.0 100.2M903.0 104.9L896.0 100.2M903.2 105.0L903.0 104.9M805.0 110.6L801.1 112.0M812.0 106.0L805.0 110.6M813.0 105.0L812.0 106.0M903.2 105.0L910.0 109.2M914.2 112.0L910.0 109.2M770.0 117.5L765.7 119.0M777.0 116.0L770.0 117.5M784.0 115.1L777.0 116.0M791.0 114.3L784.0 115.1M798.0 113.1L791.0 114.3M801.1 112.0L798.0 113.1M914.2 112.0L917.0 113.6M924.0 118.0L917.0 113.6M925.5 119.0L924.0 118.0M756.0 123.5L752.1 126.0M763.0 119.9L756.0 123.5M765.7 119.0L763.0 119.9M925.5 119.0L931.0 122.6M935.2 126.0L931.0 122.6M749.0 128.2L744.0 133.0M752.1 126.0L749.0 128.2M935.2 126.0L938.0 128.5M942.0 133.0L938.0 128.5M742.0 135.7L739.6 140.0M744.0 133.0L742.0 135.7M942.0 133.0L945.0 136.8M947.4 140.0L945.0 136.8M739.6 140.0L737.4 147.0M947.4 140.0L952.0 145.8M953.0 147.0L952.0 145.8M737.4 147.0L736.0 154.0M953.0 147.0L958.9 154.0M735.0 158.1L734.3 161.0M736.0 154.0L735.0 158.1M958.9 154.0L959.0 154.1M965.7 161.0L959.0 154.1M734.3 161.0L731.9 168.0M965.7 161.0L966.0 161.3M973.0 167.7L966.0 161.3M973.4 168.0L973.0 167.7M728.0 175.0L728.0 175.0M731.9 168.0L728.0 175.0M973.4 168.0L980.0 174.8M980.2 175.0L980.0 174.8M728.0 175.0L723.9 182.0M980.2 175.0L984.2 182.0M723.9 182.0L721.7 189.0M984.2 182.0L986.0 189.0M721.7 189.0L722.4 196.0M986.0 189.0L986.8 196.0M722.4 196.0L724.7 203.0M986.8 196.0L986.9 203.0M724.7 203.0L727.4 210.0M986.9 203.0L986.6 210.0M727.4 210.0L728.0 211.6M729.8 217.0L728.0 211.6M986.6 210.0L985.9 217.0M729.8 217.0L731.3 224.0M985.9 217.0L984.8 224.0M731.3 224.0L732.0 231.0M984.8 224.0L983.3 231.0M732.0 231.0L732.3 238.0M983.3 231.0L982.5 238.0M732.3 238.0L732.4 245.0M982.5 238.0L982.7 245.0M732.4 245.0L732.4 252.0M982.7 245.0L983.6 252.0M732.4 252.0L732.5 259.0M983.6 252.0L984.8 259.0M732.5 259.0L732.7 266.0M984.8 259.0L986.1 266.0M732.7 266.0L733.2 273.0M986.1 266.0L987.0 272.0M987.2 273.0L987.0 272.0M733.2 273.0L734.4 280.0M987.2 273.0L987.9 280.0M287.0 285.9L284.7 287.0M294.0 286.0L287.0 285.9M296.4 287.0L294.0 286.0M734.4 280.0L735.0 282.2M736.2 287.0L735.0 282.2M987.9 280.0L988.3 287.0M280.0 289.1L274.0 294.0M284.7 287.0L280.0 289.1M296.4 287.0L301.0 288.6M308.0 291.9L301.0 288.6M312.9 294.0L308.0 291.9M399.0 291.7L395.2 294.0M406.0 290.1L399.0 291.7M413.0 291.6L406.0 290.1M415.3 294.0L413.0 291.6M736.2 287.0L738.0 294.0M988.3 287.0L988.0 294.0M273.0 294.8L267.8 301.0M274.0 294.0L273.0 294.8M312.9 294.0L315.0 294.8M322.0 297.0L315.0 294.8M329.0 298.6L322.0 297.0M336.0 299.3L329.0 298.6M343.0 299.5L336.0 299.3M350.0 300.1L343.0 299.5M355.9 301.0L350.0 300.1M385.0 299.6L381.8 301.0M392.0 295.5L385.0 299.6M395.2 294.0L392.0 295.5M415.3 294.0L420.0 299.8M420.6 301.0L420.0 299.8M738.0 294.0L739.5 301.0M987.0 297.2L984.4 301.0M988.0 294.0L987.0 297.2M266.0 303.5L263.4 308.0M267.8 301.0L266.0 303.5M355.9 301.0L357.0 301.2M364.0 302.1L357.0 301.2M371.0 302.6L364.0 302.1M378.0 302.0L371.0 302.6M381.8 301.0L378.0 302.0M420.6 301.0L424.8 308.0M739.5 301.0L740.5 308.0M973.0 307.4L972.4 308.0M980.0 303.4L973.0 307.4M984.4 301.0L980.0 303.4M263.4 308.0L260.4 315.0M424.8 308.0L427.0 311.0M429.7 315.0L427.0 311.0M740.5 308.0L740.8 315.0M972.4 308.0L966.9 315.0M259.0 317.7L256.9 322.0M260.4 315.0L259.0 317.7M429.7 315.0L434.0 319.3M436.7 322.0L434.0 319.3M740.8 315.0L740.9 322.0M966.0 316.8L963.9 322.0M966.9 315.0L966.0 316.8M252.0 328.4L251.5 329.0M256.9 322.0L252.0 328.4M436.7 322.0L441.0 325.7M444.5 329.0L441.0 325.7M740.9 322.0L741.1 329.0M963.9 322.0L961.2 329.0M245.0 335.7L244.8 336.0M251.5 329.0L245.0 335.7M444.5 329.0L448.0 332.4M451.4 336.0L448.0 332.4M741.1 329.0L741.5 336.0M959.0 334.8L958.5 336.0M961.2 329.0L959.0 334.8M244.8 336.0L238.7 343.0M451.4 336.0L455.0 340.6M456.8 343.0L455.0 340.6M741.5 336.0L742.0 343.0M958.5 336.0L955.6 343.0M238.0 344.0L234.3 350.0M238.7 343.0L238.0 344.0M456.8 343.0L461.0 350.0M742.0 343.0L742.0 343.1M742.8 350.0L742.0 343.1M955.6 343.0L952.6 350.0M234.3 350.0L231.1 357.0M461.0 350.0L462.0 351.9M465.0 357.0L462.0 351.9M742.8 350.0L743.8 357.0M952.0 351.4L949.2 357.0M952.6 350.0L952.0 351.4M231.0 357.1L228.4 364.0M231.1 357.0L231.0 357.1M465.0 357.0L468.4 364.0M743.8 357.0L744.9 364.0M949.2 357.0L945.9 364.0M228.4 364.0L225.9 371.0M468.4 364.0L469.0 365.7M471.4 371.0L469.0 365.7M744.9 364.0L746.1 371.0M945.0 365.9L942.4 371.0M945.9 364.0L945.0 365.9M224.0 376.5L223.4 378.0M225.9 371.0L224.0 376.5M471.4 371.0L474.0 378.0M746.1 371.0L747.3 378.0M942.4 371.0L938.5 378.0M223.4 378.0L220.7 385.0M474.0 378.0L476.0 384.2M476.3 385.0L476.0 384.2M747.3 378.0L748.5 385.0M938.0 378.6L932.3 385.0M938.5 378.0L938.0 378.6M220.7 385.0L217.9 392.0M476.3 385.0L478.9 392.0M748.5 385.0L749.0 387.3M750.1 392.0L749.0 387.3M924.0 389.8L919.5 392.0M931.0 385.9L924.0 389.8M932.3 385.0L931.0 385.9M217.0 394.3L214.8 399.0M217.9 392.0L217.0 394.3M478.9 392.0L481.4 399.0M750.1 392.0L752.2 399.0M910.0 396.1L903.5 399.0M917.0 393.1L910.0 396.1M919.5 392.0L917.0 393.1M214.8 399.0L212.2 406.0M481.4 399.0L483.0 404.4M483.5 406.0L483.0 404.4M752.2 399.0L754.5 406.0M896.0 403.3L892.4 406.0M903.0 399.3L896.0 403.3M903.5 399.0L903.0 399.3M212.2 406.0L210.7 413.0M483.5 406.0L485.0 413.0M754.5 406.0L756.0 411.1M756.9 413.0L756.0 411.1M889.0 408.7L884.9 413.0M892.4 406.0L889.0 408.7M210.7 413.0L210.3 420.0M485.0 413.0L486.1 420.0M756.9 413.0L760.1 420.0M882.0 416.0L878.8 420.0M884.9 413.0L882.0 416.0M210.3 420.0L211.2 427.0M486.1 420.0L487.3 427.0M760.1 420.0L763.0 425.5M765.3 427.0L763.0 425.5M791.0 426.9L790.0 427.0M798.0 426.6L791.0 426.9M801.4 427.0L798.0 426.6M875.0 424.1L872.4 427.0M878.8 420.0L875.0 424.1M211.2 427.0L213.3 434.0M487.3 427.0L489.0 434.0M765.3 427.0L770.0 429.7M777.0 429.3L770.0 429.7M784.0 427.9L777.0 429.3M790.0 427.0L784.0 427.9M801.4 427.0L805.0 427.5M812.0 429.9L805.0 427.5M819.0 433.7L812.0 429.9M819.6 434.0L819.0 433.7M868.0 431.3L864.9 434.0M872.4 427.0L868.0 431.3M213.3 434.0L216.2 441.0M489.0 434.0L490.0 436.6M491.7 441.0L490.0 436.6M819.6 434.0L826.0 437.7M833.0 440.7L826.0 437.7M834.4 441.0L833.0 440.7M854.0 440.6L852.4 441.0M861.0 436.8L854.0 440.6M864.9 434.0L861.0 436.8M216.2 441.0L217.0 442.9M219.2 448.0L217.0 442.9M491.7 441.0L496.0 448.0M834.4 441.0L840.0 442.0M847.0 442.2L840.0 442.0M852.4 441.0L847.0 442.2M219.2 448.0L221.6 455.0M496.0 448.0L497.0 449.3M501.1 455.0L497.0 449.3M221.6 455.0L223.6 462.0M501.1 455.0L504.0 459.0M506.1 462.0L504.0 459.0M223.6 462.0L224.0 463.5M225.5 469.0L224.0 463.5M506.1 462.0L510.4 469.0M225.5 469.0L227.7 476.0M510.4 469.0L511.0 470.5M513.3 476.0L511.0 470.5M227.7 476.0L230.7 483.0M513.3 476.0L513.3 483.0M230.7 483.0L231.0 483.6M233.9 490.0L231.0 483.6M511.0 488.5L510.5 490.0M513.3 483.0L511.0 488.5M233.9 490.0L235.9 497.0M510.5 490.0L506.8 497.0M235.9 497.0L236.8 504.0M504.0 501.3L501.7 504.0M506.8 497.0L504.0 501.3M236.8 504.0L237.0 511.0M497.0 509.1L494.3 511.0M501.7 504.0L497.0 509.1M237.0 511.0L236.8 518.0M476.0 517.9L474.4 518.0M483.0 516.5L476.0 517.9M490.0 513.7L483.0 516.5M494.3 511.0L490.0 513.7M236.8 518.0L236.7 525.0M420.0 524.6L418.9 525.0M427.0 521.7L420.0 524.6M434.0 520.0L427.0 521.7M441.0 519.2L434.0 520.0M448.0 519.0L441.0 519.2M455.0 519.0L448.0 519.0M462.0 518.9L455.0 519.0M469.0 518.4L462.0 518.9M474.4 518.0L469.0 518.4M236.7 525.0L237.3 532.0M406.0 529.8L399.2 532.0M413.0 527.4L406.0 529.8M418.9 525.0L413.0 527.4M237.3 532.0L238.0 534.4M240.1 539.0L238.0 534.4M385.0 538.4L383.9 539.0M392.0 534.9L385.0 538.4M399.0 532.1L392.0 534.9M399.2 532.0L399.0 532.1M240.1 539.0L245.0 543.5M250.3 546.0L245.0 543.5M294.0 545.6L290.8 546.0M301.0 545.6L294.0 545.6M303.7 546.0L301.0 545.6M378.0 542.2L371.6 546.0M383.9 539.0L378.0 542.2M250.3 546.0L252.0 546.6M259.0 548.6L252.0 546.6M266.0 549.3L259.0 548.6M273.0 549.0L266.0 549.3M280.0 547.9L273.0 549.0M287.0 546.5L280.0 547.9M290.8 546.0L287.0 546.5M303.7 546.0L308.0 546.6M315.0 549.0L308.0 546.6M321.3 553.0L315.0 549.0M364.0 550.4L359.8 553.0M371.0 546.3L364.0 550.4M371.6 546.0L371.0 546.3M321.3 553.0L322.0 553.4M329.0 557.4L322.0 553.4M336.0 559.7L329.0 557.4M343.0 559.1L336.0 559.7M350.0 557.1L343.0 559.1M357.0 554.3L350.0 557.1M359.8 553.0L357.0 554.3" stroke="#7c83f5" stroke-width="1.98" opacity="0.9"/>
<path d="M840.0 60.5L833.8 63.0M847.0 59.2L840.0 60.5M854.0 58.9L847.0 59.2M861.0 59.2L854.0 58.9M868.0 59.9L861.0 59.2M875.0 60.7L868.0 59.9M882.0 61.3L875.0 60.7M889.0 61.5L882.0 61.3M896.0 62.0L889.0 61.5M900.3 63.0L896.0 62.0M826.0 67.4L821.8 70.0M833.0 63.3L826.0 67.4M833.8 63.0L833.0 63.3M900.3 63.0L903.0 63.8M910.0 67.9L903.0 63.8M912.2 70.0L910.0 67.9M812.0 75.7L809.0 77.0M819.0 71.8L812.0 75.7M821.8 70.0L819.0 71.8M912.2 70.0L917.0 75.3M918.3 77.0L917.0 75.3M777.0 82.9L770.5 84.0M784.0 82.2L777.0 82.9M791.0 81.5L784.0 82.2M798.0 80.5L791.0 81.5M805.0 78.7L798.0 80.5M809.0 77.0L805.0 78.7M918.3 77.0L923.4 84.0M756.0 89.7L753.2 91.0M763.0 86.3L756.0 89.7M770.0 84.1L763.0 86.3M770.5 84.0L770.0 84.1M923.4 84.0L924.0 84.8M928.9 91.0L924.0 84.8M742.0 96.5L738.7 98.0M749.0 93.2L742.0 96.5M753.2 91.0L749.0 93.2M928.9 91.0L931.0 93.3M936.6 98.0L931.0 93.3M728.0 103.0L723.8 105.0M735.0 99.8L728.0 103.0M738.7 98.0L735.0 99.8M936.6 98.0L938.0 99.0M945.0 103.2L938.0 99.0M947.6 105.0L945.0 103.2M721.0 106.7L714.4 112.0M723.8 105.0L721.0 106.7M947.6 105.0L952.0 108.6M955.0 112.0L952.0 108.6M714.0 112.5L711.1 119.0M714.4 112.0L714.0 112.5M955.0 112.0L959.0 118.2M959.4 119.0L959.0 118.2M711.1 119.0L710.6 126.0M959.4 119.0L963.2 126.0M710.6 126.0L711.1 133.0M963.2 126.0L966.0 130.4M968.0 133.0L966.0 130.4M711.1 133.0L711.7 140.0M968.0 133.0L973.0 137.5M976.6 140.0L973.0 137.5M711.7 140.0L711.4 147.0M976.6 140.0L980.0 142.0M987.0 145.3L980.0 142.0M991.5 147.0L987.0 145.3M711.4 147.0L709.7 154.0M991.5 147.0L994.0 148.1M1001.0 150.8L994.0 148.1M1008.0 153.7L1001.0 150.8M1008.7 154.0L1008.0 153.7M709.7 154.0L707.2 161.0M1008.7 154.0L1015.0 157.6M1021.8 161.0L1015.0 157.6M707.0 161.4L704.3 168.0M707.2 161.0L707.0 161.4M1021.8 161.0L1022.0 161.1M1029.0 166.0L1022.0 161.1M1031.7 168.0L1029.0 166.0M704.3 168.0L701.7 175.0M1031.7 168.0L1036.0 174.1M1036.5 175.0L1036.0 174.1M700.0 180.6L699.6 182.0M701.7 175.0L700.0 180.6M1036.5 175.0L1038.9 182.0M699.6 182.0L698.9 189.0M1038.9 182.0L1040.1 189.0M698.9 189.0L699.1 196.0M1040.1 189.0L1041.0 196.0M699.1 196.0L699.8 203.0M1041.0 196.0L1041.6 203.0M699.8 203.0L700.0 204.3M701.0 210.0L700.0 204.3M1041.6 203.0L1041.3 210.0M701.0 210.0L702.7 217.0M1041.3 210.0L1039.1 217.0M420.0 221.9L417.7 224.0M427.0 222.3L420.0 221.9M430.6 224.0L427.0 222.3M702.7 217.0L704.7 224.0M1036.0 221.2L1034.9 224.0M1039.1 217.0L1036.0 221.2M413.0 228.6L411.5 231.0M417.7 224.0L413.0 228.6M430.6 224.0L434.0 226.6M436.9 231.0L434.0 226.6M704.7 224.0L706.6 231.0M1029.0 230.9L1028.9 231.0M1034.9 224.0L1029.0 230.9M406.0 236.8L404.7 238.0M411.5 231.0L406.0 236.8M436.9 231.0L438.1 238.0M706.6 231.0L707.0 232.3M708.1 238.0L707.0 232.3M1028.9 231.0L1024.1 238.0M280.0 244.0L275.1 245.0M287.0 244.0L280.0 244.0M291.8 245.0L287.0 244.0M392.0 244.1L388.4 245.0M399.0 241.4L392.0 244.1M404.7 238.0L399.0 241.4M438.1 238.0L437.9 245.0M708.1 238.0L709.4 245.0M1022.0 241.8L1020.8 245.0M1024.1 238.0L1022.0 241.8M266.0 248.9L261.8 252.0M273.0 245.5L266.0 248.9M275.1 245.0L273.0 245.5M291.8 245.0L294.0 245.5M301.0 248.5L294.0 245.5M306.4 252.0L301.0 248.5M371.0 250.1L368.0 252.0M378.0 247.6L371.0 250.1M385.0 245.8L378.0 247.6M388.4 245.0L385.0 245.8M437.9 245.0L437.9 252.0M709.4 245.0L710.7 252.0M1020.8 245.0L1019.3 252.0M259.0 255.0L255.6 259.0M261.8 252.0L259.0 255.0M306.4 252.0L308.0 253.3M313.7 259.0L308.0 253.3M364.0 255.1L360.5 259.0M368.0 252.0L364.0 255.1M437.9 252.0L438.7 259.0M710.7 252.0L711.8 259.0M1019.3 252.0L1019.1 259.0M255.6 259.0L252.1 266.0M313.7 259.0L315.0 260.6M319.8 266.0L315.0 260.6M357.0 263.0L354.3 266.0M360.5 259.0L357.0 263.0M438.7 259.0L440.4 266.0M711.8 259.0L712.9 266.0M1019.1 259.0L1020.4 266.0M252.0 266.1L247.6 273.0M252.1 266.0L252.0 266.1M319.8 266.0L322.0 268.1M329.0 272.8L322.0 268.1M329.9 273.0L329.0 272.8M350.0 269.8L344.2 273.0M354.3 266.0L350.0 269.8M440.4 266.0L441.0 267.5M442.9 273.0L441.0 267.5M712.9 266.0L714.0 272.2M714.1 273.0L714.0 272.2M1020.4 266.0L1022.0 269.8M1023.5 273.0L1022.0 269.8M245.0 276.7L242.9 280.0M247.6 273.0L245.0 276.7M329.9 273.0L336.0 274.4M343.0 273.5L336.0 274.4M344.2 273.0L343.0 273.5M442.9 273.0L445.7 280.0M714.1 273.0L716.3 280.0M1023.5 273.0L1029.0 279.9M1029.1 280.0L1029.0 279.9M242.9 280.0L238.5 287.0M445.7 280.0L448.0 285.5M448.7 287.0L448.0 285.5M716.3 280.0L719.4 287.0M1029.1 280.0L1035.8 287.0M238.0 287.9L234.8 294.0M238.5 287.0L238.0 287.9M448.7 287.0L452.6 294.0M719.4 287.0L721.0 290.1M722.7 294.0L721.0 290.1M1035.8 287.0L1036.0 287.2M1041.8 294.0L1036.0 287.2M234.8 294.0L231.1 301.0M452.6 294.0L455.0 297.5M457.9 301.0L455.0 297.5M722.7 294.0L725.6 301.0M1041.8 294.0L1043.0 296.0M1046.4 301.0L1043.0 296.0M231.0 301.3L227.4 308.0M231.1 301.0L231.0 301.3M457.9 301.0L462.0 305.7M464.2 308.0L462.0 305.7M725.6 301.0L727.6 308.0M1046.4 301.0L1048.7 308.0M1106.0 306.6L1099.1 308.0M1113.0 305.8L1106.0 306.6M1120.0 305.8L1113.0 305.8M1127.0 306.6L1120.0 305.8M1134.0 308.0L1127.0 306.6M1134.1 308.0L1134.0 308.0M224.0 313.6L223.1 315.0M227.4 308.0L224.0 313.6M464.2 308.0L469.0 313.6M470.2 315.0L469.0 313.6M727.6 308.0L728.0 312.0M728.3 315.0L728.0 312.0M1048.7 308.0L1048.0 315.0M1099.0 308.2L1096.6 315.0M1099.1 308.0L1099.0 308.2M1134.1 308.0L1141.0 314.7M1141.2 315.0L1141.0 314.7M223.1 315.0L219.2 322.0M470.2 315.0L475.8 322.0M728.3 315.0L728.1 322.0M1048.0 315.0L1045.5 322.0M1096.6 315.0L1099.0 316.4M1106.0 319.1L1099.0 316.4M1113.0 321.6L1106.0 319.1M1114.8 322.0L1113.0 321.6M1134.0 321.0L1130.8 322.0M1141.0 315.3L1134.0 321.0M1141.2 315.0L1141.0 315.3M217.0 327.2L216.4 329.0M219.2 322.0L217.0 327.2M475.8 322.0L476.0 322.3M481.5 329.0L476.0 322.3M728.0 323.8L727.6 329.0M728.1 322.0L728.0 323.8M1043.0 327.7L1042.5 329.0M1045.5 322.0L1043.0 327.7M1114.8 322.0L1120.0 322.6M1127.0 322.6L1120.0 322.6M1130.8 322.0L1127.0 322.6M216.4 329.0L214.5 336.0M481.5 329.0L483.0 330.7M487.6 336.0L483.0 330.7M727.6 329.0L726.7 336.0M1042.5 329.0L1037.4 336.0M214.5 336.0L213.1 343.0M487.6 336.0L490.0 338.6M494.2 343.0L490.0 338.6M726.7 336.0L725.9 343.0M1029.0 341.8L1027.0 343.0M1036.0 337.2L1029.0 341.8M1037.4 336.0L1036.0 337.2M213.1 343.0L211.5 350.0M494.2 343.0L497.0 346.1M500.4 350.0L497.0 346.1M725.9 343.0L725.4 350.0M1022.0 346.0L1016.6 350.0M1027.0 343.0L1022.0 346.0M210.0 354.6L208.9 357.0M211.5 350.0L210.0 354.6M500.4 350.0L504.0 355.4M505.0 357.0L504.0 355.4M725.4 350.0L725.6 357.0M1015.0 351.4L1010.4 357.0M1016.6 350.0L1015.0 351.4M208.9 357.0L204.8 364.0M505.0 357.0L508.3 364.0M725.6 357.0L726.8 364.0M1008.0 360.8L1006.0 364.0M1010.4 357.0L1008.0 360.8M203.0 366.9L199.6 371.0M204.8 364.0L203.0 366.9M508.3 364.0L511.0 369.2M512.0 371.0L511.0 369.2M726.8 364.0L728.0 369.3M728.4 371.0L728.0 369.3M1006.0 364.0L1002.5 371.0M196.0 375.2L193.0 378.0M199.6 371.0L196.0 375.2M512.0 371.0L515.3 378.0M728.4 371.0L730.2 378.0M1001.0 374.7L999.7 378.0M1002.5 371.0L1001.0 374.7M189.0 381.8L185.3 385.0M193.0 378.0L189.0 381.8M515.3 378.0L517.7 385.0M730.2 378.0L731.9 385.0M999.7 378.0L997.6 385.0M182.0 388.0L177.9 392.0M185.3 385.0L182.0 388.0M517.7 385.0L518.0 386.1M519.4 392.0L518.0 386.1M731.9 385.0L733.4 392.0M997.6 385.0L996.3 392.0M175.0 395.2L172.0 399.0M177.9 392.0L175.0 395.2M519.4 392.0L520.8 399.0M733.4 392.0L734.8 399.0M996.3 392.0L995.6 399.0M168.0 405.5L167.8 406.0M172.0 399.0L168.0 405.5M520.8 399.0L521.7 406.0M734.8 399.0L735.0 400.7M735.7 406.0L735.0 400.7M995.6 399.0L995.4 406.0M167.8 406.0L165.4 413.0M521.7 406.0L522.3 413.0M735.7 406.0L736.0 413.0M995.4 406.0L995.3 413.0M165.4 413.0L163.3 420.0M522.3 413.0L522.7 420.0M736.0 413.0L735.9 420.0M995.3 413.0L994.7 420.0M163.3 420.0L161.3 427.0M522.7 420.0L523.5 427.0M735.9 420.0L736.0 427.0M994.0 423.3L993.2 427.0M994.7 420.0L994.0 423.3M161.0 427.9L159.1 434.0M161.3 427.0L161.0 427.9M523.5 427.0L525.0 433.4M525.2 434.0L525.0 433.4M736.0 427.0L736.7 434.0M993.2 427.0L990.2 434.0M159.1 434.0L157.1 441.0M525.2 434.0L528.0 441.0M736.7 434.0L738.4 441.0M987.0 438.6L984.8 441.0M990.2 434.0L987.0 438.6M157.1 441.0L157.5 448.0M528.0 441.0L532.0 447.2M532.5 448.0L532.0 447.2M738.4 441.0L741.6 448.0M924.0 447.4L918.7 448.0M931.0 447.1L924.0 447.4M938.0 447.2L931.0 447.1M945.0 447.6L938.0 447.2M952.0 448.0L945.0 447.6M953.1 448.0L952.0 448.0M973.0 447.4L966.6 448.0M980.0 444.7L973.0 447.4M984.8 441.0L980.0 444.7M157.5 448.0L161.0 453.3M162.1 455.0L161.0 453.3M532.5 448.0L539.0 454.9M539.1 455.0L539.0 454.9M741.6 448.0L742.0 448.6M746.6 455.0L742.0 448.6M903.0 452.2L897.3 455.0M910.0 449.7L903.0 452.2M917.0 448.2L910.0 449.7M918.7 448.0L917.0 448.2M953.1 448.0L959.0 448.2M966.0 448.1L959.0 448.2M966.6 448.0L966.0 448.1M162.1 455.0L168.0 459.8M170.5 462.0L168.0 459.8M539.1 455.0L546.0 461.3M546.7 462.0L546.0 461.3M746.6 455.0L749.0 457.9M753.1 462.0L749.0 457.9M889.0 459.8L885.1 462.0M896.0 455.7L889.0 459.8M897.3 455.0L896.0 455.7M170.5 462.0L175.0 465.5M179.0 469.0L175.0 465.5M546.7 462.0L552.9 469.0M753.1 462.0L756.0 464.8M761.4 469.0L756.0 464.8M868.0 468.1L861.7 469.0M875.0 466.3L868.0 468.1M882.0 463.6L875.0 466.3M885.1 462.0L882.0 463.6M179.0 469.0L182.0 472.5M184.5 476.0L182.0 472.5M552.9 469.0L553.0 469.2M555.6 476.0L553.0 469.2M761.4 469.0L763.0 470.4M769.0 476.0L763.0 470.4M826.0 473.8L822.1 476.0M833.0 471.1L826.0 473.8M840.0 469.8L833.0 471.1M847.0 469.7L840.0 469.8M854.0 469.6L847.0 469.7M861.0 469.1L854.0 469.6M861.7 469.0L861.0 469.1M184.5 476.0L187.4 483.0M555.6 476.0L556.0 483.0M769.0 476.0L770.0 477.2M775.4 483.0L770.0 477.2M812.0 482.2L810.8 483.0M819.0 477.7L812.0 482.2M822.1 476.0L819.0 477.7M187.4 483.0L189.0 488.9M189.3 490.0L189.0 488.9M556.0 483.0L554.5 490.0M775.4 483.0L777.0 484.7M784.0 489.8L777.0 484.7M784.8 490.0L784.0 489.8M798.0 489.9L797.8 490.0M805.0 486.6L798.0 489.9M810.8 483.0L805.0 486.6M189.3 490.0L191.1 497.0M553.0 495.2L552.2 497.0M554.5 490.0L553.0 495.2M784.8 490.0L791.0 491.5M797.8 490.0L791.0 491.5M191.1 497.0L193.3 504.0M552.2 497.0L548.2 504.0M193.3 504.0L195.9 511.0M546.0 507.2L542.9 511.0M548.2 504.0L546.0 507.2M195.9 511.0L196.0 511.3M198.4 518.0L196.0 511.3M539.0 515.6L536.9 518.0M542.9 511.0L539.0 515.6M198.4 518.0L199.5 525.0M532.0 523.3L530.4 525.0M536.9 518.0L532.0 523.3M199.5 525.0L198.5 532.0M525.0 529.7L522.5 532.0M530.4 525.0L525.0 529.7M198.5 532.0L196.3 539.0M518.0 535.6L513.9 539.0M522.5 532.0L518.0 535.6M196.0 539.9L194.5 546.0M196.3 539.0L196.0 539.9M511.0 541.4L504.9 546.0M513.9 539.0L511.0 541.4M194.5 546.0L193.8 553.0M441.0 552.4L439.6 553.0M448.0 550.1L441.0 552.4M455.0 548.7L448.0 550.1M462.0 548.0L455.0 548.7M469.0 547.9L462.0 548.0M476.0 548.5L469.0 547.9M483.0 549.2L476.0 548.5M490.0 549.6L483.0 549.2M497.0 549.1L490.0 549.6M504.0 546.6L497.0 549.1M504.9 546.0L504.0 546.6M193.8 553.0L194.7 560.0M427.0 559.5L426.2 560.0M434.0 555.6L427.0 559.5M439.6 553.0L434.0 555.6M194.7 560.0L196.0 563.5M197.5 567.0L196.0 563.5M420.0 563.7L414.5 567.0M426.2 560.0L420.0 563.7M197.5 567.0L202.6 574.0M406.0 572.3L403.2 574.0M413.0 567.9L406.0 572.3M414.5 567.0L413.0 567.9M202.6 574.0L203.0 574.4M210.0 580.0L203.0 574.4M211.9 581.0L210.0 580.0M392.0 580.7L391.4 581.0M399.0 576.6L392.0 580.7M403.2 574.0L399.0 576.6M211.9 581.0L217.0 583.5M224.0 585.7L217.0 583.5M231.0 587.4L224.0 585.7M233.5 588.0L231.0 587.4M378.0 587.1L374.9 588.0M385.0 584.3L378.0 587.1M391.4 581.0L385.0 584.3M233.5 588.0L238.0 589.2M245.0 591.4L238.0 589.2M252.0 594.2L245.0 591.4M254.0 595.0L252.0 594.2M294.0 594.1L291.3 595.0M301.0 592.5L294.0 594.1M308.0 591.5L301.0 592.5M315.0 591.2L308.0 591.5M322.0 591.3L315.0 591.2M329.0 591.4L322.0 591.3M336.0 591.4L329.0 591.4M343.0 591.2L336.0 591.4M350.0 591.1L343.0 591.2M357.0 590.9L350.0 591.1M364.0 590.3L357.0 590.9M371.0 589.1L364.0 590.3M374.9 588.0L371.0 589.1M254.0 595.0L259.0 597.1M266.0 598.9L259.0 597.1M273.0 599.3L266.0 598.9M280.0 598.3L273.0 599.3M287.0 596.3L280.0 598.3M291.3 595.0L287.0 596.3" stroke="#7c83f5" stroke-width="1.85" opacity="0.9"/>
<path d="M910.0 27.2L905.9 28.0M917.0 27.4L910.0 27.2M918.7 28.0L917.0 27.4M889.0 33.0L882.6 35.0M896.0 30.6L889.0 33.0M903.0 28.5L896.0 30.6M905.9 28.0L903.0 28.5M918.7 28.0L924.0 30.4M928.4 35.0L924.0 30.4M840.0 39.6L833.1 42.0M847.0 38.5L840.0 39.6M854.0 37.9L847.0 38.5M861.0 37.5L854.0 37.9M868.0 37.1L861.0 37.5M875.0 36.4L868.0 37.1M882.0 35.2L875.0 36.4M882.6 35.0L882.0 35.2M928.4 35.0L931.0 38.4M933.0 42.0L931.0 38.4M826.0 45.6L820.2 49.0M833.0 42.0L826.0 45.6M833.1 42.0L833.0 42.0M933.0 42.0L937.3 49.0M812.0 53.8L807.1 56.0M819.0 49.7L812.0 53.8M820.2 49.0L819.0 49.7M937.3 49.0L938.0 50.0M942.2 56.0L938.0 50.0M679.0 61.4L677.8 63.0M686.0 57.3L679.0 61.4M693.0 57.3L686.0 57.3M700.0 59.5L693.0 57.3M707.0 62.4L700.0 59.5M708.6 63.0L707.0 62.4M756.0 61.4L751.1 63.0M763.0 58.6L756.0 61.4M770.0 57.4L763.0 58.6M777.0 57.5L770.0 57.4M784.0 58.0L777.0 57.5M791.0 58.3L784.0 58.0M798.0 58.1L791.0 58.3M805.0 56.9L798.0 58.1M807.1 56.0L805.0 56.9M942.2 56.0L945.0 59.4M948.1 63.0L945.0 59.4M677.8 63.0L673.3 70.0M708.6 63.0L714.0 64.5M721.0 65.2L714.0 64.5M728.0 65.6L721.0 65.2M735.0 65.5L728.0 65.6M742.0 64.9L735.0 65.5M749.0 63.6L742.0 64.9M751.1 63.0L749.0 63.6M948.1 63.0L952.0 66.7M955.8 70.0L952.0 66.7M672.0 72.7L670.3 77.0M673.3 70.0L672.0 72.7M955.8 70.0L959.0 72.5M964.4 77.0L959.0 72.5M670.3 77.0L668.3 84.0M964.4 77.0L966.0 78.3M971.4 84.0L966.0 78.3M668.3 84.0L666.8 91.0M971.4 84.0L973.0 86.0M976.0 91.0L973.0 86.0M666.8 91.0L665.5 98.0M976.0 91.0L979.1 98.0M665.5 98.0L666.5 105.0M979.1 98.0L980.0 100.3M981.7 105.0L980.0 100.3M666.5 105.0L669.6 112.0M981.7 105.0L984.6 112.0M669.6 112.0L672.0 116.0M674.0 119.0L672.0 116.0M984.6 112.0L987.0 116.2M989.1 119.0L987.0 116.2M252.0 124.9L245.0 126.0M259.0 124.2L252.0 124.9M266.0 124.0L259.0 124.2M273.0 124.3L266.0 124.0M280.0 125.3L273.0 124.3M282.9 126.0L280.0 125.3M674.0 119.0L678.7 126.0M989.1 119.0L994.0 123.5M998.0 126.0L994.0 123.5M231.0 130.8L226.2 133.0M238.0 128.1L231.0 130.8M245.0 126.0L238.0 128.1M245.0 126.0L245.0 126.0M282.9 126.0L287.0 127.7M294.0 131.7L287.0 127.7M295.9 133.0L294.0 131.7M678.7 126.0L679.0 126.5M681.9 133.0L679.0 126.5M998.0 126.0L1001.0 127.5M1008.0 130.2L1001.0 127.5M1015.0 132.1L1008.0 130.2M1021.8 133.0L1015.0 132.1M1036.0 132.5L1029.3 133.0M1043.0 131.9L1036.0 132.5M1050.0 131.8L1043.0 131.9M1055.0 133.0L1050.0 131.8M224.0 134.8L217.5 140.0M226.2 133.0L224.0 134.8M295.9 133.0L301.0 139.6M301.3 140.0L301.0 139.6M681.9 133.0L683.5 140.0M1021.8 133.0L1022.0 133.0M1029.0 133.0L1022.0 133.0M1029.3 133.0L1029.0 133.0M1055.0 133.0L1057.0 133.6M1064.0 139.9L1057.0 133.6M1064.1 140.0L1064.0 139.9M217.0 140.7L212.4 147.0M217.5 140.0L217.0 140.7M301.3 140.0L304.0 147.0M683.5 140.0L682.9 147.0M1064.1 140.0L1068.5 147.0M212.4 147.0L210.5 154.0M304.0 147.0L305.7 154.0M682.9 147.0L681.1 154.0M1068.5 147.0L1071.0 151.5M1072.3 154.0L1071.0 151.5M210.5 154.0L216.7 161.0M231.0 159.6L224.2 161.0M238.0 158.5L231.0 159.6M245.0 158.0L238.0 158.5M252.0 158.5L245.0 158.0M259.0 160.1L252.0 158.5M261.2 161.0L259.0 160.1M305.7 154.0L306.8 161.0M681.1 154.0L679.5 161.0M1072.3 154.0L1076.1 161.0M216.7 161.0L217.0 161.2M224.0 161.0L217.0 161.2M224.2 161.0L224.0 161.0M261.2 161.0L266.0 163.9M269.8 168.0L266.0 163.9M306.8 161.0L307.9 168.0M679.0 163.4L677.9 168.0M679.5 161.0L679.0 163.4M1076.1 161.0L1078.0 164.3M1080.4 168.0L1078.0 164.3M269.8 168.0L271.5 175.0M307.9 168.0L308.0 168.2M309.3 175.0L308.0 168.2M441.0 173.2L435.0 175.0M448.0 171.2L441.0 173.2M455.0 170.2L448.0 171.2M462.0 170.6L455.0 170.2M469.0 172.8L462.0 170.6M473.6 175.0L469.0 172.8M677.9 168.0L676.7 175.0M1080.4 168.0L1085.0 174.4M1085.4 175.0L1085.0 174.4M271.5 175.0L269.9 182.0M309.3 175.0L311.3 182.0M392.0 179.8L385.9 182.0M399.0 177.9L392.0 179.8M406.0 176.8L399.0 177.9M413.0 176.4L406.0 176.8M420.0 176.7L413.0 176.4M427.0 176.8L420.0 176.7M434.0 175.3L427.0 176.8M435.0 175.0L434.0 175.3M473.6 175.0L476.0 176.1M483.0 180.4L476.0 176.1M485.2 182.0L483.0 180.4M676.7 175.0L675.9 182.0M1085.4 175.0L1090.7 182.0M269.9 182.0L267.1 189.0M311.3 182.0L313.8 189.0M378.0 186.3L373.8 189.0M385.0 182.4L378.0 186.3M385.9 182.0L385.0 182.4M485.2 182.0L490.0 186.2M493.0 189.0L490.0 186.2M675.9 182.0L676.0 189.0M1090.7 182.0L1092.0 184.0M1095.3 189.0L1092.0 184.0M266.0 190.9L262.2 196.0M267.1 189.0L266.0 190.9M313.8 189.0L315.0 191.4M318.5 196.0L315.0 191.4M364.0 194.0L359.4 196.0M371.0 190.7L364.0 194.0M373.8 189.0L371.0 190.7M493.0 189.0L497.0 194.1M498.6 196.0L497.0 194.1M676.0 189.0L675.0 196.0M1095.3 189.0L1098.4 196.0M224.0 201.5L220.4 203.0M231.0 202.7L224.0 201.5M231.9 203.0L231.0 202.7M259.0 199.1L253.5 203.0M262.2 196.0L259.0 199.1M318.5 196.0L322.0 198.4M329.0 200.5L322.0 198.4M336.0 201.0L329.0 200.5M343.0 200.5L336.0 201.0M350.0 199.2L343.0 200.5M357.0 197.0L350.0 199.2M359.4 196.0L357.0 197.0M498.6 196.0L502.0 203.0M675.0 196.0L672.2 203.0M1098.4 196.0L1099.0 198.6M1099.9 203.0L1099.0 198.6M217.0 205.0L214.9 210.0M220.4 203.0L217.0 205.0M231.9 203.0L238.0 204.8M245.0 205.7L238.0 204.8M252.0 204.0L245.0 205.7M253.5 203.0L252.0 204.0M502.0 203.0L503.8 210.0M672.0 203.4L668.3 210.0M672.2 203.0L672.0 203.4M1099.9 203.0L1101.1 210.0M214.9 210.0L213.6 217.0M503.8 210.0L504.0 212.5M504.5 217.0L504.0 212.5M665.0 215.7L664.3 217.0M668.3 210.0L665.0 215.7M1101.1 210.0L1103.0 217.0M213.6 217.0L213.2 224.0M504.5 217.0L504.7 224.0M664.3 217.0L661.4 224.0M1103.0 217.0L1106.0 222.0M1107.9 224.0L1106.0 222.0M213.2 224.0L212.4 231.0M504.7 224.0L504.3 231.0M661.4 224.0L661.4 231.0M1107.9 224.0L1113.0 227.7M1119.7 231.0L1113.0 227.7M212.4 231.0L211.0 238.0M504.3 231.0L505.1 238.0M661.4 231.0L665.0 237.4M665.4 238.0L665.0 237.4M1119.7 231.0L1120.0 231.1M1127.0 234.9L1120.0 231.1M1131.1 238.0L1127.0 234.9M210.0 242.3L209.4 245.0M211.0 238.0L210.0 242.3M505.1 238.0L507.9 245.0M665.4 238.0L672.0 243.5M673.9 245.0L672.0 243.5M1131.1 238.0L1134.0 240.4M1138.0 245.0L1134.0 240.4M209.4 245.0L207.7 252.0M507.9 245.0L511.0 250.6M511.7 252.0L511.0 250.6M673.9 245.0L679.0 248.3M683.8 252.0L679.0 248.3M1138.0 245.0L1141.0 248.5M1144.2 252.0L1141.0 248.5M207.7 252.0L205.8 259.0M511.7 252.0L514.8 259.0M683.8 252.0L686.0 253.8M690.5 259.0L686.0 253.8M1144.2 252.0L1148.0 255.8M1152.2 259.0L1148.0 255.8M205.8 259.0L204.0 266.0M514.8 259.0L516.8 266.0M690.5 259.0L693.0 262.9M694.6 266.0L693.0 262.9M1152.2 259.0L1155.0 260.8M1162.0 264.6L1155.0 260.8M1164.8 266.0L1162.0 264.6M204.0 266.0L203.1 273.0M516.8 266.0L517.7 273.0M694.6 266.0L697.0 273.0M1164.8 266.0L1169.0 268.2M1176.0 272.9L1169.0 268.2M1176.1 273.0L1176.0 272.9M203.0 274.3L202.3 280.0M203.1 273.0L203.0 274.3M517.7 273.0L517.2 280.0M697.0 273.0L699.4 280.0M1176.1 273.0L1182.5 280.0M202.3 280.0L200.0 287.0M517.2 280.0L515.4 287.0M699.4 280.0L700.0 281.3M702.4 287.0L700.0 281.3M1182.5 280.0L1183.0 280.7M1186.9 287.0L1183.0 280.7M200.0 287.0L196.4 294.0M515.4 287.0L512.8 294.0M702.4 287.0L705.8 294.0M1186.9 287.0L1190.0 293.1M1190.4 294.0L1190.0 293.1M196.0 294.6L190.9 301.0M196.4 294.0L196.0 294.6M511.0 298.5L510.0 301.0M512.8 294.0L511.0 298.5M705.8 294.0L707.0 296.5M709.2 301.0L707.0 296.5M1190.4 294.0L1192.5 301.0M189.0 303.2L184.8 308.0M190.9 301.0L189.0 303.2M510.0 301.0L508.6 308.0M709.2 301.0L712.0 308.0M1192.5 301.0L1193.9 308.0M182.0 311.9L180.0 315.0M184.8 308.0L182.0 311.9M508.6 308.0L509.7 315.0M712.0 308.0L713.1 315.0M1193.9 308.0L1194.5 315.0M180.0 315.0L176.6 322.0M509.7 315.0L511.0 317.3M514.3 322.0L511.0 317.3M713.1 315.0L712.8 322.0M1194.5 315.0L1194.8 322.0M175.0 325.8L173.7 329.0M176.6 322.0L175.0 325.8M514.3 322.0L518.0 325.5M522.9 329.0L518.0 325.5M712.8 322.0L711.6 329.0M1194.8 322.0L1195.3 329.0M173.7 329.0L170.4 336.0M522.9 329.0L525.0 330.3M532.0 333.3L525.0 330.3M539.0 335.4L532.0 333.3M541.3 336.0L539.0 335.4M711.6 329.0L710.1 336.0M1195.3 329.0L1195.8 336.0M168.0 340.1L166.6 343.0M170.4 336.0L168.0 340.1M541.3 336.0L546.0 337.2M553.0 338.7L546.0 337.2M560.0 340.3L553.0 338.7M566.4 343.0L560.0 340.3M710.1 336.0L708.7 343.0M1195.8 336.0L1196.3 343.0M166.6 343.0L162.7 350.0M566.4 343.0L567.0 343.4M571.9 350.0L567.0 343.4M708.7 343.0L707.6 350.0M1196.3 343.0L1196.5 350.0M161.0 352.6L158.8 357.0M162.7 350.0L161.0 352.6M571.9 350.0L574.0 355.2M574.6 357.0L574.0 355.2M707.6 350.0L707.5 357.0M1196.5 350.0L1196.1 357.0M158.8 357.0L155.2 364.0M574.6 357.0L578.0 364.0M707.5 357.0L708.4 364.0M1196.1 357.0L1194.7 364.0M154.0 366.5L152.2 371.0M155.2 364.0L154.0 366.5M578.0 364.0L581.0 367.4M585.8 371.0L581.0 367.4M708.4 364.0L709.9 371.0M1194.7 364.0L1191.6 371.0M152.2 371.0L149.6 378.0M585.8 371.0L588.0 372.2M595.0 376.0L588.0 372.2M597.7 378.0L595.0 376.0M709.9 371.0L711.8 378.0M1190.0 373.3L1186.0 378.0M1191.6 371.0L1190.0 373.3M149.6 378.0L147.1 385.0M597.7 378.0L602.0 382.8M603.1 385.0L602.0 382.8M711.8 378.0L714.0 385.0M714.0 385.0L714.0 385.0M1183.0 380.8L1177.4 385.0M1186.0 378.0L1183.0 380.8M147.0 385.4L144.7 392.0M147.1 385.0L147.0 385.4M603.1 385.0L605.3 392.0M714.0 385.0L715.8 392.0M1134.0 391.7L1132.6 392.0M1141.0 390.1L1134.0 391.7M1148.0 389.7L1141.0 390.1M1155.0 389.8L1148.0 389.7M1162.0 389.8L1155.0 389.8M1169.0 388.8L1162.0 389.8M1176.0 386.1L1169.0 388.8M1177.4 385.0L1176.0 386.1M144.7 392.0L142.0 399.0M605.3 392.0L606.9 399.0M715.8 392.0L717.3 399.0M1113.0 398.6L1111.6 399.0M1120.0 396.3L1113.0 398.6M1127.0 393.9L1120.0 396.3M1132.6 392.0L1127.0 393.9M140.0 403.2L138.5 406.0M142.0 399.0L140.0 403.2M606.9 399.0L608.1 406.0M717.3 399.0L717.7 406.0M1092.0 405.4L1091.2 406.0M1099.0 402.7L1092.0 405.4M1106.0 400.7L1099.0 402.7M1111.6 399.0L1106.0 400.7M138.5 406.0L133.7 413.0M608.1 406.0L609.0 412.8M609.0 413.0L609.0 412.8M717.7 406.0L716.9 413.0M1085.0 409.4L1080.0 413.0M1091.2 406.0L1085.0 409.4M133.0 413.9L127.3 420.0M133.7 413.0L133.0 413.9M609.0 413.0L609.6 420.0M716.9 413.0L715.5 420.0M1071.0 419.7L1070.5 420.0M1078.0 414.4L1071.0 419.7M1080.0 413.0L1078.0 414.4M126.0 421.4L120.9 427.0M127.3 420.0L126.0 421.4M609.6 420.0L610.3 427.0M715.5 420.0L714.3 427.0M1064.0 424.9L1060.8 427.0M1070.5 420.0L1064.0 424.9M119.0 429.6L116.2 434.0M120.9 427.0L119.0 429.6M610.3 427.0L611.1 434.0M714.3 427.0L714.1 434.0M1057.0 429.7L1050.2 434.0M1060.8 427.0L1057.0 429.7M116.2 434.0L113.3 441.0M611.1 434.0L612.4 441.0M714.1 434.0L715.4 441.0M1043.0 440.7L1042.7 441.0M1050.0 434.2L1043.0 440.7M1050.2 434.0L1050.0 434.2M112.0 445.1L111.1 448.0M113.3 441.0L112.0 445.1M612.4 441.0L614.5 448.0M715.4 441.0L718.3 448.0M1042.7 441.0L1037.8 448.0M111.1 448.0L108.3 455.0M614.5 448.0L616.0 450.4M622.0 455.0L616.0 450.4M718.3 448.0L721.0 453.0M722.1 455.0L721.0 453.0M1036.0 451.4L1034.2 455.0M1037.8 448.0L1036.0 451.4M108.3 455.0L105.1 462.0M622.0 455.0L623.0 455.3M630.0 457.2L623.0 455.3M637.0 458.6L630.0 457.2M644.0 460.3L637.0 458.6M648.9 462.0L644.0 460.3M722.1 455.0L726.5 462.0M1034.2 455.0L1031.9 462.0M105.0 462.3L102.0 469.0M105.1 462.0L105.0 462.3M588.0 466.7L585.7 469.0M595.0 464.3L588.0 466.7M602.0 466.0L595.0 464.3M604.5 469.0L602.0 466.0M648.9 462.0L651.0 462.9M658.0 467.6L651.0 462.9M659.3 469.0L658.0 467.6M726.5 462.0L728.0 464.3M731.2 469.0L728.0 464.3M1031.9 462.0L1030.7 469.0M102.0 469.0L99.5 476.0M585.7 469.0L581.3 476.0M604.5 469.0L607.0 476.0M659.3 469.0L663.6 476.0M731.2 469.0L735.0 474.9M735.8 476.0L735.0 474.9M1030.7 469.0L1030.4 476.0M99.5 476.0L98.7 483.0M581.0 477.2L580.0 483.0M581.3 476.0L581.0 477.2M607.0 476.0L607.9 483.0M663.6 476.0L664.7 483.0M735.8 476.0L739.6 483.0M1030.4 476.0L1030.3 483.0M98.7 483.0L99.8 490.0M580.0 483.0L579.9 490.0M607.9 483.0L608.7 490.0M664.7 483.0L662.3 490.0M739.6 483.0L742.0 489.5M742.2 490.0L742.0 489.5M1030.3 483.0L1030.1 490.0M99.8 490.0L102.9 497.0M579.9 490.0L580.4 497.0M608.7 490.0L609.0 491.2M610.9 497.0L609.0 491.2M658.0 494.8L655.5 497.0M662.3 490.0L658.0 494.8M742.2 490.0L744.6 497.0M1030.1 490.0L1030.3 497.0M102.9 497.0L105.0 499.6M110.8 504.0L105.0 499.6M580.4 497.0L580.7 504.0M610.9 497.0L616.0 502.3M619.4 504.0L616.0 502.3M644.0 502.7L639.6 504.0M651.0 499.7L644.0 502.7M655.5 497.0L651.0 499.7M744.6 497.0L746.8 504.0M833.0 503.4L832.0 504.0M840.0 500.9L833.0 503.4M847.0 500.7L840.0 500.9M854.0 501.9L847.0 500.7M861.0 504.0L854.0 501.9M1030.3 497.0L1030.7 504.0M110.8 504.0L112.0 504.6M119.0 507.5L112.0 504.6M126.0 510.3L119.0 507.5M127.5 511.0L126.0 510.3M580.7 504.0L580.3 511.0M619.4 504.0L623.0 505.1M630.0 505.6L623.0 505.1M637.0 504.7L630.0 505.6M639.6 504.0L637.0 504.7M746.8 504.0L749.0 509.6M749.7 511.0L749.0 509.6M826.0 508.9L823.9 511.0M832.0 504.0L826.0 508.9M861.0 504.0L861.0 504.0M868.0 507.7L861.0 504.0M873.2 511.0L868.0 507.7M1030.7 504.0L1031.1 511.0M127.5 511.0L133.0 514.1M138.4 518.0L133.0 514.1M580.3 511.0L577.6 518.0M749.7 511.0L754.1 518.0M819.0 517.2L818.3 518.0M823.9 511.0L819.0 517.2M873.2 511.0L875.0 512.6M882.0 517.9L875.0 512.6M882.2 518.0L882.0 517.9M1031.1 511.0L1031.3 518.0M138.4 518.0L140.0 520.1M142.9 525.0L140.0 520.1M574.0 522.6L572.4 525.0M577.6 518.0L574.0 522.6M754.1 518.0L756.0 520.1M761.8 525.0L756.0 520.1M812.0 524.3L811.0 525.0M818.3 518.0L812.0 524.3M882.2 518.0L889.0 522.7M891.5 525.0L889.0 522.7M1031.3 518.0L1031.8 525.0M142.9 525.0L145.4 532.0M567.0 530.4L565.4 532.0M572.4 525.0L567.0 530.4M761.8 525.0L763.0 525.8M770.0 528.8L763.0 525.8M777.0 530.4L770.0 528.8M784.0 530.9L777.0 530.4M791.0 530.6L784.0 530.9M798.0 529.6L791.0 530.6M805.0 527.8L798.0 529.6M811.0 525.0L805.0 527.8M891.5 525.0L894.4 532.0M1031.8 525.0L1032.7 532.0M145.4 532.0L147.0 536.4M147.9 539.0L147.0 536.4M560.0 536.1L556.0 539.0M565.4 532.0L560.0 536.1M894.4 532.0L894.2 539.0M1032.7 532.0L1033.3 539.0M147.9 539.0L150.5 546.0M546.0 545.3L545.0 546.0M553.0 540.9L546.0 545.3M556.0 539.0L553.0 540.9M894.2 539.0L893.3 546.0M1033.3 539.0L1033.0 546.0M150.5 546.0L153.2 553.0M539.0 550.1L535.2 553.0M545.0 546.0L539.0 550.1M893.3 546.0L893.9 553.0M1033.0 546.0L1030.2 553.0M153.2 553.0L154.0 554.6M156.7 560.0L154.0 554.6M532.0 555.8L527.6 560.0M535.2 553.0L532.0 555.8M893.9 553.0L896.0 557.2M897.8 560.0L896.0 557.2M1022.0 558.7L1019.7 560.0M1029.0 554.2L1022.0 558.7M1030.2 553.0L1029.0 554.2M156.7 560.0L160.7 567.0M525.0 562.9L521.1 567.0M527.6 560.0L525.0 562.9M897.8 560.0L903.0 566.4M903.7 567.0L903.0 566.4M1008.0 566.6L1007.6 567.0M1015.0 562.2L1008.0 566.6M1019.7 560.0L1015.0 562.2M160.7 567.0L161.0 567.5M165.0 574.0L161.0 567.5M518.0 570.3L513.6 574.0M521.1 567.0L518.0 570.3M903.7 567.0L910.0 572.6M912.5 574.0L910.0 572.6M1001.0 572.2L998.8 574.0M1007.6 567.0L1001.0 572.2M165.0 574.0L168.0 580.0M168.5 581.0L168.0 580.0M504.0 580.5L502.6 581.0M511.0 576.3L504.0 580.5M513.6 574.0L511.0 576.3M912.5 574.0L917.0 576.2M924.0 578.8L917.0 576.2M929.2 581.0L924.0 578.8M994.0 577.5L988.6 581.0M998.8 574.0L994.0 577.5M168.5 581.0L171.7 588.0M483.0 586.5L477.4 588.0M490.0 584.7L483.0 586.5M497.0 582.9L490.0 584.7M502.6 581.0L497.0 582.9M929.2 581.0L931.0 581.5M938.0 583.6L931.0 581.5M945.0 585.0L938.0 583.6M952.0 585.7L945.0 585.0M959.0 586.2L952.0 585.7M966.0 586.5L959.0 586.2M973.0 586.5L966.0 586.5M980.0 584.9L973.0 586.5M987.0 581.9L980.0 584.9M988.6 581.0L987.0 581.9M171.7 588.0L175.0 593.7M175.8 595.0L175.0 593.7M427.0 594.1L425.2 595.0M434.0 592.1L427.0 594.1M441.0 591.1L434.0 592.1M448.0 590.9L441.0 591.1M455.0 591.1L448.0 590.9M462.0 591.1L455.0 591.1M469.0 590.2L462.0 591.1M476.0 588.4L469.0 590.2M477.4 588.0L476.0 588.4M175.8 595.0L181.5 602.0M420.0 597.7L413.6 602.0M425.2 595.0L420.0 597.7M181.5 602.0L182.0 602.5M188.9 609.0L182.0 602.5M406.0 608.4L405.3 609.0M413.0 602.5L406.0 608.4M413.6 602.0L413.0 602.5M188.9 609.0L189.0 609.0M196.0 614.4L189.0 609.0M198.1 616.0L196.0 614.4M405.3 609.0L399.5 616.0M198.1 616.0L203.0 619.0M209.2 623.0L203.0 619.0M399.0 616.8L395.0 623.0M399.5 616.0L399.0 616.8M209.2 623.0L210.0 623.4M217.0 627.7L210.0 623.4M221.7 630.0L217.0 627.7M392.0 628.8L391.2 630.0M395.0 623.0L392.0 628.8" stroke="#7c83f5" stroke-width="1.72" opacity="0.9"/>
<path d="M686.0 6.7L685.0 7.0M693.0 6.1L686.0 6.7M700.0 6.5L693.0 6.1M702.6 7.0L700.0 6.5M882.0 6.9L881.8 7.0M889.0 3.8L882.0 6.9M896.0 0.3L889.0 3.8M896.6 0.0L896.0 0.3M940.6 0.0L944.6 7.0M672.0 14.0L671.9 14.0M679.0 9.3L672.0 14.0M685.0 7.0L679.0 9.3M702.6 7.0L707.0 8.1M714.0 10.4L707.0 8.1M721.0 13.1L714.0 10.4M723.6 14.0L721.0 13.1M861.0 13.8L860.0 14.0M868.0 12.0L861.0 13.8M875.0 9.8L868.0 12.0M881.8 7.0L875.0 9.8M944.6 7.0L945.0 7.7M948.1 14.0L945.0 7.7M665.0 18.7L662.0 21.0M671.9 14.0L665.0 18.7M723.6 14.0L728.0 15.5M735.0 17.6L728.0 15.5M742.0 19.2L735.0 17.6M749.0 19.8L742.0 19.2M756.0 19.3L749.0 19.8M763.0 18.3L756.0 19.3M770.0 19.4L763.0 18.3M774.2 21.0L770.0 19.4M833.0 19.5L829.4 21.0M840.0 17.2L833.0 19.5M847.0 16.2L840.0 17.2M854.0 15.1L847.0 16.2M860.0 14.0L854.0 15.1M948.1 14.0L951.7 21.0M658.0 24.2L654.1 28.0M662.0 21.0L658.0 24.2M774.2 21.0L777.0 22.0M784.0 25.1L777.0 22.0M791.0 27.7L784.0 25.1M792.0 28.0L791.0 27.7M819.0 25.5L812.6 28.0M826.0 22.4L819.0 25.5M829.4 21.0L826.0 22.4M951.7 21.0L952.0 21.5M955.8 28.0L952.0 21.5M651.0 31.3L648.1 35.0M654.1 28.0L651.0 31.3M792.0 28.0L798.0 29.4M805.0 29.8L798.0 29.4M812.0 28.3L805.0 29.8M812.6 28.0L812.0 28.3M955.8 28.0L959.0 32.7M960.9 35.0L959.0 32.7M644.0 40.7L643.2 42.0M648.1 35.0L644.0 40.7M960.9 35.0L966.0 40.8M967.2 42.0L966.0 40.8M643.2 42.0L639.5 49.0M967.2 42.0L973.0 48.4M973.6 49.0L973.0 48.4M637.0 54.5L636.5 56.0M639.5 49.0L637.0 54.5M973.6 49.0L979.3 56.0M636.5 56.0L635.4 63.0M979.3 56.0L980.0 56.9M985.1 63.0L980.0 56.9M635.4 63.0L635.4 70.0M985.1 63.0L987.0 65.7M989.8 70.0L987.0 65.7M635.4 70.0L636.1 77.0M989.8 70.0L993.0 77.0M1071.0 76.0L1069.3 77.0M1078.0 73.1L1071.0 76.0M1085.0 72.1L1078.0 73.1M1092.0 73.4L1085.0 72.1M1097.6 77.0L1092.0 73.4M280.0 83.6L278.0 84.0M287.0 82.9L280.0 83.6M294.0 83.1L287.0 82.9M299.1 84.0L294.0 83.1M636.1 77.0L636.9 84.0M993.0 77.0L994.0 79.8M995.4 84.0L994.0 79.8M1064.0 81.9L1062.0 84.0M1069.3 77.0L1064.0 81.9M1097.6 77.0L1099.0 79.8M1099.9 84.0L1099.0 79.8M259.0 89.5L254.3 91.0M266.0 87.1L259.0 89.5M273.0 85.0L266.0 87.1M278.0 84.0L273.0 85.0M299.1 84.0L301.0 84.4M308.0 86.8L301.0 84.4M315.0 89.8L308.0 86.8M317.1 91.0L315.0 89.8M636.9 84.0L637.0 85.1M637.5 91.0L637.0 85.1M995.4 84.0L997.6 91.0M1057.0 90.1L1056.3 91.0M1062.0 84.0L1057.0 90.1M1099.9 84.0L1099.3 91.0M217.0 97.7L216.4 98.0M224.0 95.4L217.0 97.7M231.0 94.2L224.0 95.4M238.0 93.4L231.0 94.2M245.0 92.7L238.0 93.4M252.0 91.6L245.0 92.7M254.3 91.0L252.0 91.6M317.1 91.0L322.0 93.9M329.0 97.8L322.0 93.9M329.6 98.0L329.0 97.8M637.5 91.0L637.4 98.0M997.6 91.0L1000.1 98.0M1050.0 97.3L1049.5 98.0M1056.3 91.0L1050.0 97.3M1099.0 92.5L1097.2 98.0M1099.3 91.0L1099.0 92.5M210.0 101.2L204.8 105.0M216.4 98.0L210.0 101.2M329.6 98.0L336.0 100.3M343.0 102.1L336.0 100.3M350.0 104.9L343.0 102.1M350.1 105.0L350.0 104.9M637.4 98.0L637.7 105.0M1000.1 98.0L1001.0 99.7M1005.2 105.0L1001.0 99.7M1043.0 102.5L1039.3 105.0M1049.5 98.0L1043.0 102.5M1097.2 98.0L1094.7 105.0M203.0 106.3L196.7 112.0M204.8 105.0L203.0 106.3M350.1 105.0L357.0 109.0M360.9 112.0L357.0 109.0M637.7 105.0L638.8 112.0M1005.2 105.0L1008.0 107.3M1015.0 110.0L1008.0 107.3M1022.0 110.4L1015.0 110.0M1029.0 109.1L1022.0 110.4M1036.0 106.5L1029.0 109.1M1039.3 105.0L1036.0 106.5M1094.7 105.0L1093.3 112.0M196.0 112.6L189.4 119.0M196.7 112.0L196.0 112.6M360.9 112.0L364.0 114.8M368.5 119.0L364.0 114.8M638.8 112.0L640.5 119.0M1093.3 112.0L1093.1 119.0M182.0 125.8L181.8 126.0M189.0 119.4L182.0 125.8M189.4 119.0L189.0 119.4M368.5 119.0L371.0 121.8M376.1 126.0L371.0 121.8M640.5 119.0L642.5 126.0M1093.1 119.0L1094.1 126.0M175.0 131.1L171.0 133.0M181.8 126.0L175.0 131.1M376.1 126.0L378.0 127.6M385.0 129.5L378.0 127.6M392.0 130.1L385.0 129.5M399.0 130.3L392.0 130.1M406.0 130.6L399.0 130.3M413.0 131.6L406.0 130.6M418.0 133.0L413.0 131.6M642.5 126.0L644.0 132.2M644.2 133.0L644.0 132.2M1094.1 126.0L1096.5 133.0M161.0 137.3L155.4 140.0M168.0 134.6L161.0 137.3M171.0 133.0L168.0 134.6M418.0 133.0L420.0 133.5M427.0 135.7L420.0 133.5M434.0 135.8L427.0 135.7M441.0 134.9L434.0 135.8M448.0 133.7L441.0 134.9M455.0 133.0L448.0 133.7M462.0 133.8L455.0 133.0M469.0 136.6L462.0 133.8M475.2 140.0L469.0 136.6M644.2 133.0L645.2 140.0M1096.5 133.0L1099.0 137.8M1100.9 140.0L1099.0 137.8M154.0 140.8L147.3 147.0M155.4 140.0L154.0 140.8M475.2 140.0L476.0 140.4M483.0 144.5L476.0 140.4M487.3 147.0L483.0 144.5M645.2 140.0L644.1 147.0M1100.9 140.0L1106.0 144.8M1109.3 147.0L1106.0 144.8M147.0 147.4L143.9 154.0M147.3 147.0L147.0 147.4M487.3 147.0L490.0 148.6M497.0 152.7L490.0 148.6M499.2 154.0L497.0 152.7M644.0 147.9L643.1 154.0M644.1 147.0L644.0 147.9M1109.3 147.0L1113.0 149.7M1118.1 154.0L1113.0 149.7M143.9 154.0L142.0 161.0M499.2 154.0L504.0 157.1M510.7 161.0L504.0 157.1M643.1 154.0L643.1 161.0M1118.1 154.0L1120.0 156.6M1122.3 161.0L1120.0 156.6M142.0 161.0L141.1 168.0M510.7 161.0L511.0 161.2M518.0 164.1L511.0 161.2M525.0 165.7L518.0 164.1M532.0 166.7L525.0 165.7M539.0 167.8L532.0 166.7M539.8 168.0L539.0 167.8M643.1 161.0L643.7 168.0M1122.3 161.0L1124.4 168.0M141.1 168.0L140.6 175.0M539.8 168.0L546.0 169.7M553.0 172.9L546.0 169.7M556.7 175.0L553.0 172.9M643.7 168.0L644.0 170.3M644.6 175.0L644.0 170.3M1124.4 168.0L1126.1 175.0M140.6 175.0L140.3 182.0M556.7 175.0L560.0 177.6M564.6 182.0L560.0 177.6M644.6 175.0L645.2 182.0M1126.1 175.0L1127.0 177.9M1128.4 182.0L1127.0 177.9M140.3 182.0L140.5 189.0M564.6 182.0L567.0 186.0M568.6 189.0L567.0 186.0M645.2 182.0L645.0 189.0M1128.4 182.0L1131.6 189.0M140.5 189.0L141.9 196.0M568.6 189.0L569.7 196.0M644.0 193.2L643.3 196.0M645.0 189.0L644.0 193.2M1131.6 189.0L1134.0 192.8M1136.5 196.0L1134.0 192.8M141.9 196.0L145.0 203.0M569.7 196.0L568.3 203.0M643.3 196.0L640.2 203.0M1136.5 196.0L1141.0 200.7M1143.7 203.0L1141.0 200.7M145.0 203.0L147.0 206.2M149.7 210.0L147.0 206.2M567.0 205.8L564.6 210.0M568.3 203.0L567.0 205.8M637.0 208.8L636.3 210.0M640.2 203.0L637.0 208.8M1143.7 203.0L1148.0 206.4M1152.8 210.0L1148.0 206.4M149.7 210.0L154.0 215.7M155.1 217.0L154.0 215.7M560.0 215.9L559.0 217.0M564.6 210.0L560.0 215.9M636.3 210.0L632.7 217.0M1152.8 210.0L1155.0 211.6M1161.6 217.0L1155.0 211.6M155.1 217.0L160.1 224.0M559.0 217.0L554.9 224.0M632.7 217.0L630.3 224.0M1161.6 217.0L1162.0 217.4M1168.4 224.0L1162.0 217.4M160.1 224.0L161.0 225.9M163.8 231.0L161.0 225.9M554.9 224.0L553.8 231.0M630.3 224.0L630.0 231.0M1168.4 224.0L1169.0 224.6M1174.4 231.0L1169.0 224.6M163.8 231.0L164.7 238.0M553.8 231.0L556.8 238.0M630.0 231.0L631.5 238.0M1174.4 231.0L1176.0 232.6M1181.4 238.0L1176.0 232.6M164.7 238.0L163.0 245.0M556.8 238.0L560.0 242.3M563.6 245.0L560.0 242.3M631.5 238.0L633.7 245.0M1181.4 238.0L1183.0 239.4M1188.9 245.0L1183.0 239.4M161.0 249.0L159.6 252.0M163.0 245.0L161.0 249.0M563.6 245.0L567.0 247.7M571.3 252.0L567.0 247.7M633.7 245.0L636.9 252.0M1188.9 245.0L1190.0 246.0M1195.2 252.0L1190.0 246.0M159.6 252.0L155.1 259.0M571.3 252.0L574.0 255.8M575.4 259.0L574.0 255.8M636.9 252.0L637.0 252.3M643.3 259.0L637.0 252.3M1195.2 252.0L1197.0 254.1M1200.3 259.0L1197.0 254.1M154.0 260.5L150.2 266.0M155.1 259.0L154.0 260.5M575.4 259.0L578.6 266.0M643.3 259.0L644.0 259.5M651.0 262.4L644.0 259.5M658.0 263.9L651.0 262.4M665.0 265.6L658.0 263.9M666.0 266.0L665.0 265.6M1200.3 259.0L1204.0 264.8M147.0 272.1L146.5 273.0M150.2 266.0L147.0 272.1M578.6 266.0L581.0 268.6M584.4 273.0L581.0 268.6M666.0 266.0L672.0 269.3M675.6 273.0L672.0 269.3M146.5 273.0L143.4 280.0M584.4 273.0L588.0 275.2M594.5 280.0L588.0 275.2M675.6 273.0L679.0 277.4M680.3 280.0L679.0 277.4M140.0 286.7L139.8 287.0M143.4 280.0L140.0 286.7M594.5 280.0L595.0 280.3M602.0 284.9L595.0 280.3M604.8 287.0L602.0 284.9M680.3 280.0L684.1 287.0M139.8 287.0L135.3 294.0M604.8 287.0L609.0 289.8M615.2 294.0L609.0 289.8M684.1 287.0L686.0 290.6M687.6 294.0L686.0 290.6M133.0 297.4L130.0 301.0M135.3 294.0L133.0 297.4M615.2 294.0L616.0 294.5M623.0 299.1L616.0 294.5M626.3 301.0L623.0 299.1M687.6 294.0L690.6 301.0M126.0 306.2L124.9 308.0M130.0 301.0L126.0 306.2M626.3 301.0L630.0 303.3M637.0 306.5L630.0 303.3M640.8 308.0L637.0 306.5M690.6 301.0L693.0 307.7M693.1 308.0L693.0 307.7M124.9 308.0L121.8 315.0M640.8 308.0L644.0 309.8M651.0 313.6L644.0 309.8M653.3 315.0L651.0 313.6M693.1 308.0L694.1 315.0M121.8 315.0L120.9 322.0M653.3 315.0L658.0 319.1M660.7 322.0L658.0 319.1M694.1 315.0L693.7 322.0M120.9 322.0L122.6 329.0M660.7 322.0L664.2 329.0M693.0 325.4L692.2 329.0M693.7 322.0L693.0 325.4M122.6 329.0L125.7 336.0M664.2 329.0L664.9 336.0M692.2 329.0L690.1 336.0M125.7 336.0L126.0 336.8M127.8 343.0L126.0 336.8M664.9 336.0L664.1 343.0M690.1 336.0L688.1 343.0M127.8 343.0L127.8 350.0M664.1 343.0L663.0 350.0M688.1 343.0L686.4 350.0M126.0 355.6L125.4 357.0M127.8 350.0L126.0 355.6M663.0 350.0L662.7 357.0M686.0 354.7L685.8 357.0M686.4 350.0L686.0 354.7M125.4 357.0L121.2 364.0M662.7 357.0L663.0 364.0M685.8 357.0L686.0 360.0M686.3 364.0L686.0 360.0M119.0 369.4L118.2 371.0M121.2 364.0L119.0 369.4M663.0 364.0L663.2 371.0M686.3 364.0L687.3 371.0M118.2 371.0L115.7 378.0M663.2 371.0L663.5 378.0M687.3 371.0L688.7 378.0M115.7 378.0L113.4 385.0M663.5 378.0L664.3 385.0M688.7 378.0L690.2 385.0M112.0 388.5L110.6 392.0M113.4 385.0L112.0 388.5M664.3 385.0L665.0 388.7M665.6 392.0L665.0 388.7M690.2 385.0L691.8 392.0M110.6 392.0L106.4 399.0M665.6 392.0L666.9 399.0M691.8 392.0L693.0 398.9M693.0 399.0L693.0 398.9M105.0 400.8L100.8 406.0M106.4 399.0L105.0 400.8M666.9 399.0L668.4 406.0M693.0 399.0L693.5 406.0M98.0 409.5L95.3 413.0M100.8 406.0L98.0 409.5M668.4 406.0L670.4 413.0M693.5 406.0L693.5 413.0M1204.0 411.1L1201.7 413.0M91.0 419.3L90.5 420.0M95.3 413.0L91.0 419.3M670.4 413.0L672.0 417.3M672.7 420.0L672.0 417.3M693.5 413.0L693.5 420.0M1197.0 417.2L1194.2 420.0M1201.7 413.0L1197.0 417.2M90.5 420.0L85.7 427.0M672.7 420.0L675.0 427.0M693.5 420.0L693.8 427.0M1190.0 424.8L1188.2 427.0M1194.2 420.0L1190.0 424.8M84.0 429.6L80.6 434.0M85.7 427.0L84.0 429.6M675.0 427.0L677.8 434.0M693.8 427.0L694.8 434.0M1188.2 427.0L1183.0 434.0M77.0 439.1L75.5 441.0M80.6 434.0L77.0 439.1M677.8 434.0L679.0 436.6M680.3 441.0L679.0 436.6M694.8 434.0L696.5 441.0M1106.0 440.1L1100.9 441.0M1113.0 440.5L1106.0 440.1M1116.0 441.0L1113.0 440.5M1176.0 440.5L1174.7 441.0M1183.0 434.0L1176.0 440.5M1183.0 434.0L1183.0 434.0M70.0 448.0L70.0 448.0M75.5 441.0L70.0 448.0M680.3 441.0L682.6 448.0M696.5 441.0L699.0 448.0M1099.0 441.6L1092.4 448.0M1100.9 441.0L1099.0 441.6M1116.0 441.0L1120.0 441.7M1127.0 442.7L1120.0 441.7M1134.0 442.9L1127.0 442.7M1141.0 442.2L1134.0 442.9M1148.0 442.0L1141.0 442.2M1155.0 442.6L1148.0 442.0M1162.0 443.1L1155.0 442.6M1169.0 442.8L1162.0 443.1M1174.7 441.0L1169.0 442.8M70.0 448.0L64.8 455.0M682.6 448.0L685.3 455.0M699.0 448.0L700.0 450.2M702.3 455.0L700.0 450.2M1092.0 448.8L1089.5 455.0M1092.4 448.0L1092.0 448.8M63.0 458.3L61.3 462.0M64.8 455.0L63.0 458.3M685.3 455.0L686.0 456.9M687.6 462.0L686.0 456.9M702.3 455.0L706.3 462.0M1089.5 455.0L1087.8 462.0M61.3 462.0L59.2 469.0M687.6 462.0L689.7 469.0M706.3 462.0L707.0 463.1M710.7 469.0L707.0 463.1M1087.8 462.0L1086.4 469.0M59.2 469.0L58.4 476.0M689.7 469.0L691.3 476.0M710.7 469.0L714.0 474.4M714.9 476.0L714.0 474.4M1085.0 473.9L1084.4 476.0M1086.4 469.0L1085.0 473.9M58.4 476.0L58.6 483.0M691.3 476.0L691.8 483.0M714.9 476.0L718.1 483.0M1084.4 476.0L1083.0 483.0M58.6 483.0L59.4 490.0M691.8 483.0L690.9 490.0M718.1 483.0L719.9 490.0M1083.0 483.0L1083.5 490.0M59.4 490.0L60.3 497.0M690.9 490.0L688.6 497.0M719.9 490.0L720.9 497.0M1083.5 490.0L1085.0 495.8M1085.3 497.0L1085.0 495.8M60.3 497.0L61.5 504.0M686.0 502.4L685.1 504.0M688.6 497.0L686.0 502.4M720.9 497.0L721.0 498.6M721.5 504.0L721.0 498.6M1085.3 497.0L1087.6 504.0M61.5 504.0L63.0 510.9M63.0 511.0L63.0 510.9M685.1 504.0L680.0 511.0M721.5 504.0L722.1 511.0M1087.6 504.0L1089.6 511.0M63.0 511.0L65.3 518.0M679.0 512.4L673.1 518.0M680.0 511.0L679.0 512.4M722.1 511.0L723.1 518.0M1089.6 511.0L1090.0 518.0M65.3 518.0L68.5 525.0M665.0 524.3L663.8 525.0M672.0 519.0L665.0 524.3M673.1 518.0L672.0 519.0M723.1 518.0L725.2 525.0M1090.0 518.0L1087.6 525.0M68.5 525.0L70.0 527.3M73.5 532.0L70.0 527.3M658.0 528.8L652.7 532.0M663.8 525.0L658.0 528.8M725.2 525.0L728.0 530.4M729.0 532.0L728.0 530.4M1085.0 530.4L1084.3 532.0M1087.6 525.0L1085.0 530.4M73.5 532.0L77.0 535.1M82.1 539.0L77.0 535.1M644.0 538.7L643.6 539.0M651.0 533.3L644.0 538.7M652.7 532.0L651.0 533.3M729.0 532.0L735.0 538.6M735.4 539.0L735.0 538.6M1084.3 532.0L1082.7 539.0M82.1 539.0L84.0 540.2M91.0 544.2L84.0 540.2M94.7 546.0L91.0 544.2M643.6 539.0L637.4 546.0M735.4 539.0L742.0 544.5M744.1 546.0L742.0 544.5M1082.7 539.0L1081.9 546.0M94.7 546.0L98.0 547.8M105.0 552.2L98.0 547.8M106.0 553.0L105.0 552.2M581.0 551.6L577.6 553.0M588.0 549.2L581.0 551.6M595.0 547.8L588.0 549.2M602.0 547.6L595.0 547.8M609.0 548.5L602.0 547.6M616.0 550.2L609.0 548.5M623.0 552.3L616.0 550.2M630.0 552.5L623.0 552.3M637.0 546.7L630.0 552.5M637.4 546.0L637.0 546.7M744.1 546.0L749.0 549.5M754.7 553.0L749.0 549.5M1081.9 546.0L1081.0 553.0M106.0 553.0L112.0 559.1M112.8 560.0L112.0 559.1M567.0 557.6L562.2 560.0M574.0 554.5L567.0 557.6M577.6 553.0L574.0 554.5M754.7 553.0L756.0 553.8M763.0 557.3L756.0 553.8M770.0 559.0L763.0 557.3M777.0 559.4L770.0 559.0M784.0 558.9L777.0 559.4M791.0 558.0L784.0 558.9M798.0 557.4L791.0 558.0M805.0 557.4L798.0 557.4M812.0 557.9L805.0 557.4M819.0 559.0L812.0 557.9M823.3 560.0L819.0 559.0M1081.0 553.0L1079.5 560.0M112.8 560.0L117.2 567.0M553.0 565.9L551.7 567.0M560.0 561.2L553.0 565.9M562.2 560.0L560.0 561.2M823.3 560.0L826.0 560.9M833.0 563.1L826.0 560.9M840.0 565.1L833.0 563.1M846.2 567.0L840.0 565.1M1078.0 563.2L1076.3 567.0M1079.5 560.0L1078.0 563.2M117.2 567.0L119.0 571.3M120.1 574.0L119.0 571.3M546.0 573.0L545.2 574.0M551.7 567.0L546.0 573.0M846.2 567.0L847.0 567.3M853.2 574.0L847.0 567.3M1076.3 567.0L1071.1 574.0M120.1 574.0L122.1 581.0M545.2 574.0L539.7 581.0M853.2 574.0L854.0 574.9M857.6 581.0L854.0 574.9M1071.0 574.1L1064.8 581.0M1071.1 574.0L1071.0 574.1M122.1 581.0L123.4 588.0M539.0 582.0L534.8 588.0M539.7 581.0L539.0 582.0M857.6 581.0L861.0 586.3M862.0 588.0L861.0 586.3M1064.0 581.8L1057.7 588.0M1064.8 581.0L1064.0 581.8M123.4 588.0L124.4 595.0M532.0 592.5L530.4 595.0M534.8 588.0L532.0 592.5M862.0 588.0L866.9 595.0M1050.0 593.9L1047.9 595.0M1057.0 588.6L1050.0 593.9M1057.7 588.0L1057.0 588.6M124.4 595.0L125.7 602.0M530.4 595.0L526.6 602.0M866.9 595.0L868.0 596.3M872.5 602.0L868.0 596.3M1036.0 600.5L1031.5 602.0M1043.0 597.6L1036.0 600.5M1047.9 595.0L1043.0 597.6M125.7 602.0L126.0 603.3M127.7 609.0L126.0 603.3M525.0 604.7L522.1 609.0M526.6 602.0L525.0 604.7M872.5 602.0L875.0 604.4M879.8 609.0L875.0 604.4M1015.0 606.7L1008.3 609.0M1022.0 604.7L1015.0 606.7M1029.0 602.8L1022.0 604.7M1031.5 602.0L1029.0 602.8M127.7 609.0L130.7 616.0M518.0 613.7L515.5 616.0M522.1 609.0L518.0 613.7M879.8 609.0L882.0 610.7M889.0 615.5L882.0 610.7M889.9 616.0L889.0 615.5M994.0 614.8L991.6 616.0M1001.0 611.7L994.0 614.8M1008.0 609.1L1001.0 611.7M1008.3 609.0L1008.0 609.1M130.7 616.0L133.0 619.8M134.8 623.0L133.0 619.8M511.0 619.7L504.8 623.0M515.5 616.0L511.0 619.7M889.9 616.0L896.0 619.1M903.0 622.0L896.0 619.1M905.9 623.0L903.0 622.0M980.0 622.0L977.7 623.0M987.0 618.3L980.0 622.0M991.6 616.0L987.0 618.3M134.8 623.0L139.8 630.0M490.0 628.0L484.2 630.0M497.0 625.7L490.0 628.0M504.0 623.4L497.0 625.7M504.8 623.0L504.0 623.4M905.9 623.0L910.0 624.3M917.0 626.1L910.0 624.3M924.0 627.3L917.0 626.1M931.0 627.9L924.0 627.3M938.0 628.5L931.0 627.9M945.0 629.0L938.0 628.5M952.0 629.0L945.0 629.0M959.0 628.5L952.0 629.0M966.0 627.2L959.0 628.5M973.0 625.2L966.0 627.2M977.7 623.0L973.0 625.2" stroke="oklch(0.585 0.233 277)" stroke-width="1.58" opacity="0.9"/>
<path d="M637.0 3.8L634.1 7.0M641.2 0.0L637.0 3.8M800.0 0.0L805.0 1.1M812.0 0.6L805.0 1.1M815.0 0.0L812.0 0.6M965.8 0.0L966.0 0.5M968.8 7.0L966.0 0.5M630.0 13.1L629.5 14.0M634.1 7.0L630.0 13.1M968.8 7.0L973.0 13.7M973.2 14.0L973.0 13.7M629.5 14.0L626.4 21.0M973.2 14.0L979.0 21.0M626.4 21.0L623.7 28.0M979.0 21.0L980.0 22.0M986.3 28.0L980.0 22.0M623.0 30.0L621.5 35.0M623.7 28.0L623.0 30.0M986.3 28.0L987.0 28.6M994.0 34.0L987.0 28.6M995.5 35.0L994.0 34.0M371.0 41.9L370.9 42.0M378.0 38.3L371.0 41.9M385.0 37.8L378.0 38.3M392.0 40.2L385.0 37.8M394.4 42.0L392.0 40.2M621.5 35.0L619.8 42.0M995.5 35.0L1001.0 38.6M1007.7 42.0L1001.0 38.6M266.0 48.9L263.1 49.0M273.0 48.9L266.0 48.9M277.5 49.0L273.0 48.9M287.0 48.9L282.8 49.0M294.0 48.3L287.0 48.9M301.0 47.5L294.0 48.3M308.0 48.0L301.0 47.5M310.7 49.0L308.0 48.0M364.0 48.4L363.5 49.0M370.9 42.0L364.0 48.4M394.4 42.0L399.0 45.9M401.7 49.0L399.0 45.9M619.8 42.0L618.5 49.0M1007.7 42.0L1008.0 42.2M1015.0 44.6L1008.0 42.2M1022.0 45.7L1015.0 44.6M1029.0 45.8L1022.0 45.7M1036.0 45.4L1029.0 45.8M1043.0 44.8L1036.0 45.4M1050.0 44.3L1043.0 44.8M1057.0 44.1L1050.0 44.3M1064.0 43.8L1057.0 44.1M1071.0 43.5L1064.0 43.8M1078.0 43.3L1071.0 43.5M1085.0 43.4L1078.0 43.3M1092.0 43.8L1085.0 43.4M1099.0 44.8L1092.0 43.8M1106.0 46.7L1099.0 44.8M1111.9 49.0L1106.0 46.7M210.0 55.1L207.5 56.0M217.0 54.3L210.0 55.1M224.0 53.6L217.0 54.3M231.0 52.9L224.0 53.6M238.0 52.1L231.0 52.9M245.0 51.2L238.0 52.1M252.0 50.1L245.0 51.2M259.0 49.2L252.0 50.1M263.1 49.0L259.0 49.2M277.5 49.0L280.0 49.0M282.8 49.0L280.0 49.0M310.7 49.0L315.0 50.7M322.0 55.0L315.0 50.7M323.7 56.0L322.0 55.0M357.0 54.8L355.4 56.0M363.5 49.0L357.0 54.8M401.7 49.0L406.0 53.7M407.9 56.0L406.0 53.7M618.5 49.0L617.6 56.0M1111.9 49.0L1113.0 49.5M1120.0 54.2L1113.0 49.5M1122.1 56.0L1120.0 54.2M203.0 58.5L198.7 63.0M207.5 56.0L203.0 58.5M323.7 56.0L329.0 59.1M336.0 61.8L329.0 59.1M343.0 62.0L336.0 61.8M350.0 59.7L343.0 62.0M355.4 56.0L350.0 59.7M407.9 56.0L412.9 63.0M617.6 56.0L617.3 63.0M1122.1 56.0L1127.0 62.4M1127.4 63.0L1127.0 62.4M196.0 66.8L194.0 70.0M198.7 63.0L196.0 66.8M412.9 63.0L413.0 63.2M416.5 70.0L413.0 63.2M617.3 63.0L617.4 70.0M1127.4 63.0L1130.1 70.0M194.0 70.0L189.9 77.0M416.5 70.0L419.5 77.0M617.4 70.0L617.9 77.0M1130.1 70.0L1131.4 77.0M189.0 78.5L185.4 84.0M189.9 77.0L189.0 78.5M419.5 77.0L420.0 77.9M422.7 84.0L420.0 77.9M617.9 77.0L618.6 84.0M1131.4 77.0L1132.0 84.0M182.0 88.5L179.7 91.0M185.4 84.0L182.0 88.5M422.7 84.0L427.0 90.6M427.3 91.0L427.0 90.6M618.6 84.0L619.1 91.0M1132.0 84.0L1132.5 91.0M140.0 97.4L138.0 98.0M144.5 98.0L140.0 97.4M175.0 95.6L171.3 98.0M179.7 91.0L175.0 95.6M427.3 91.0L434.0 96.2M436.9 98.0L434.0 96.2M619.1 91.0L619.3 98.0M1132.5 91.0L1133.3 98.0M133.0 99.6L128.4 105.0M138.0 98.0L133.0 99.6M144.5 98.0L147.0 98.3M154.0 100.0L147.0 98.3M161.0 100.9L154.0 100.0M168.0 99.9L161.0 100.9M171.3 98.0L168.0 99.9M436.9 98.0L441.0 99.6M448.0 101.6L441.0 99.6M455.0 103.1L448.0 101.6M462.0 104.6L455.0 103.1M463.4 105.0L462.0 104.6M619.3 98.0L619.6 105.0M1133.3 98.0L1134.0 100.8M1135.2 105.0L1134.0 100.8M126.0 108.6L124.7 112.0M128.4 105.0L126.0 108.6M463.4 105.0L469.0 106.2M476.0 108.4L469.0 106.2M483.0 111.5L476.0 108.4M483.9 112.0L483.0 111.5M619.6 105.0L620.2 112.0M1135.2 105.0L1139.4 112.0M124.7 112.0L122.6 119.0M483.9 112.0L490.0 115.2M496.4 119.0L490.0 115.2M620.2 112.0L621.1 119.0M1139.4 112.0L1141.0 113.7M1146.7 119.0L1141.0 113.7M122.6 119.0L120.9 126.0M496.4 119.0L497.0 119.4M504.0 123.0L497.0 119.4M510.6 126.0L504.0 123.0M621.1 119.0L622.0 126.0M1146.7 119.0L1148.0 120.1M1155.0 125.3L1148.0 120.1M1155.9 126.0L1155.0 125.3M120.9 126.0L119.2 133.0M510.6 126.0L511.0 126.2M518.0 129.5L511.0 126.2M524.4 133.0L518.0 129.5M622.0 126.0L622.6 133.0M1155.9 126.0L1162.0 131.4M1163.6 133.0L1162.0 131.4M119.0 133.7L117.5 140.0M119.2 133.0L119.0 133.7M524.4 133.0L525.0 133.4M532.0 137.9L525.0 133.4M535.1 140.0L532.0 137.9M622.6 133.0L622.6 140.0M1163.6 133.0L1168.3 140.0M117.5 140.0L116.3 147.0M535.1 140.0L539.0 142.2M546.0 145.8L539.0 142.2M548.5 147.0L546.0 145.8M622.6 140.0L621.5 147.0M1168.3 140.0L1169.0 142.2M1170.5 147.0L1169.0 142.2M116.3 147.0L115.5 154.0M548.5 147.0L553.0 148.8M560.0 151.8L553.0 148.8M564.5 154.0L560.0 151.8M621.5 147.0L620.3 154.0M1170.5 147.0L1171.8 154.0M115.5 154.0L114.8 161.0M564.5 154.0L567.0 155.2M574.0 158.8L567.0 155.2M577.6 161.0L574.0 158.8M620.3 154.0L619.7 161.0M1171.8 154.0L1173.4 161.0M114.8 161.0L114.1 168.0M577.6 161.0L581.0 163.2M587.3 168.0L581.0 163.2M619.7 161.0L619.6 168.0M1173.4 161.0L1175.9 168.0M114.1 168.0L112.9 175.0M587.3 168.0L588.0 168.7M593.7 175.0L588.0 168.7M619.6 168.0L619.7 175.0M1175.9 168.0L1176.0 168.1M1179.7 175.0L1176.0 168.1M112.0 178.3L111.0 182.0M112.9 175.0L112.0 178.3M593.7 175.0L595.0 177.1M597.5 182.0L595.0 177.1M619.7 175.0L619.8 182.0M1179.7 175.0L1183.0 179.5M1184.6 182.0L1183.0 179.5M111.0 182.0L108.3 189.0M597.5 182.0L600.0 189.0M619.8 182.0L619.2 189.0M1184.6 182.0L1189.5 189.0M108.3 189.0L105.5 196.0M600.0 189.0L601.6 196.0M619.2 189.0L617.4 196.0M1189.5 189.0L1190.0 189.7M1193.8 196.0L1190.0 189.7M105.0 197.5L102.9 203.0M105.5 196.0L105.0 197.5M601.6 196.0L602.0 200.0M602.3 203.0L602.0 200.0M616.0 199.5L614.7 203.0M617.4 196.0L616.0 199.5M1193.8 196.0L1197.0 201.1M1198.0 203.0L1197.0 201.1M102.9 203.0L101.0 210.0M602.3 203.0L603.2 210.0M614.7 203.0L611.8 210.0M1198.0 203.0L1202.1 210.0M101.0 210.0L100.4 217.0M603.2 210.0L607.5 217.0M611.8 210.0L609.3 217.0M1202.1 210.0L1204.0 213.1M100.4 217.0L102.4 224.0M607.5 217.0L609.0 218.1M609.3 217.0L609.0 218.1M102.4 224.0L103.7 231.0M103.7 231.0L100.4 238.0M98.0 240.7L95.1 245.0M100.4 238.0L98.0 240.7M91.0 250.3L89.9 252.0M95.1 245.0L91.0 250.3M89.9 252.0L85.1 259.0M84.0 260.9L81.2 266.0M85.1 259.0L84.0 260.9M81.2 266.0L79.5 273.0M79.5 273.0L79.2 280.0M79.2 280.0L78.9 287.0M78.9 287.0L77.8 294.0M77.0 296.3L71.9 301.0M77.8 294.0L77.0 296.3M42.0 306.4L39.7 308.0M49.0 303.4L42.0 306.4M56.0 302.2L49.0 303.4M63.0 302.1L56.0 302.2M70.0 301.8L63.0 302.1M71.9 301.0L70.0 301.8M39.7 308.0L35.6 315.0M35.6 315.0L38.4 322.0M38.4 322.0L42.0 325.5M45.8 329.0L42.0 325.5M45.8 329.0L49.0 331.6M53.4 336.0L49.0 331.6M53.4 336.0L56.0 340.1M57.3 343.0L56.0 340.1M57.3 343.0L59.1 350.0M59.1 350.0L59.9 357.0M59.9 357.0L60.0 364.0M60.0 364.0L59.6 371.0M59.6 371.0L58.5 378.0M58.5 378.0L56.1 385.0M56.0 385.2L52.3 392.0M56.1 385.0L56.0 385.2M49.0 396.3L47.2 399.0M52.3 392.0L49.0 396.3M47.2 399.0L42.3 406.0M42.0 406.4L37.8 413.0M42.3 406.0L42.0 406.4M35.0 418.1L34.0 420.0M37.8 413.0L35.0 418.1M34.0 420.0L30.7 427.0M28.0 433.5L27.8 434.0M30.7 427.0L28.0 433.5M27.8 434.0L25.0 441.0M25.0 441.0L22.7 448.0M22.7 448.0L21.6 455.0M21.6 455.0L21.5 462.0M1204.0 460.6L1202.4 462.0M21.5 462.0L22.1 469.0M1197.0 466.4L1193.0 469.0M1202.4 462.0L1197.0 466.4M22.1 469.0L23.3 476.0M1190.0 471.2L1183.6 476.0M1193.0 469.0L1190.0 471.2M23.3 476.0L24.8 483.0M1183.0 476.6L1178.3 483.0M1183.6 476.0L1183.0 476.6M24.8 483.0L26.4 490.0M1176.0 487.5L1174.9 490.0M1178.3 483.0L1176.0 487.5M26.4 490.0L27.9 497.0M1174.9 490.0L1170.9 497.0M27.9 497.0L28.0 497.7M29.3 504.0L28.0 497.7M1169.0 499.8L1166.3 504.0M1170.9 497.0L1169.0 499.8M29.3 504.0L30.7 511.0M1162.0 509.9L1161.2 511.0M1166.3 504.0L1162.0 509.9M30.7 511.0L32.2 518.0M700.0 513.4L698.5 518.0M701.3 518.0L700.0 513.4M1161.2 511.0L1155.2 518.0M32.2 518.0L33.8 525.0M698.5 518.0L696.0 525.0M701.3 518.0L701.4 525.0M1155.0 518.3L1148.3 525.0M1155.2 518.0L1155.0 518.3M33.8 525.0L35.0 529.9M35.6 532.0L35.0 529.9M693.0 527.0L690.2 532.0M696.0 525.0L693.0 527.0M701.4 525.0L702.2 532.0M1141.0 530.8L1139.3 532.0M1148.0 525.3L1141.0 530.8M1148.3 525.0L1148.0 525.3M35.6 532.0L37.2 539.0M686.0 538.6L685.6 539.0M690.2 532.0L686.0 538.6M702.2 532.0L704.0 539.0M1134.0 535.5L1130.3 539.0M1139.3 532.0L1134.0 535.5M37.2 539.0L38.8 546.0M679.0 546.0L679.0 546.0M685.6 539.0L679.0 546.0M704.0 539.0L706.9 546.0M1127.0 542.4L1124.4 546.0M1130.3 539.0L1127.0 542.4M38.8 546.0L40.7 553.0M672.0 552.5L671.5 553.0M679.0 546.0L672.0 552.5M706.9 546.0L707.0 546.2M711.3 553.0L707.0 546.2M1124.4 546.0L1120.6 553.0M40.7 553.0L42.0 556.5M44.2 560.0L42.0 556.5M671.5 553.0L666.1 560.0M711.3 553.0L714.0 556.4M717.4 560.0L714.0 556.4M1120.0 554.4L1117.9 560.0M1120.6 553.0L1120.0 554.4M44.2 560.0L49.0 564.9M53.5 567.0L49.0 564.9M665.0 561.7L662.0 567.0M666.1 560.0L665.0 561.7M717.4 560.0L721.0 563.4M724.8 567.0L721.0 563.4M1117.9 560.0L1115.8 567.0M53.5 567.0L56.0 568.0M63.0 569.7L56.0 568.0M70.0 571.7L63.0 569.7M73.8 574.0L70.0 571.7M658.0 573.9L657.9 574.0M662.0 567.0L658.0 573.9M724.8 567.0L728.0 570.3M731.5 574.0L728.0 570.3M1113.0 573.8L1112.9 574.0M1115.8 567.0L1113.0 573.8M73.8 574.0L77.0 577.2M79.0 581.0L77.0 577.2M657.9 574.0L652.8 581.0M731.5 574.0L735.0 578.1M737.3 581.0L735.0 578.1M1112.9 574.0L1107.7 581.0M79.0 581.0L80.8 588.0M581.0 586.6L578.1 588.0M588.0 584.0L581.0 586.6M595.0 582.7L588.0 584.0M602.0 584.2L595.0 582.7M609.0 587.1L602.0 584.2M611.0 588.0L609.0 587.1M651.0 582.9L644.6 588.0M652.8 581.0L651.0 582.9M737.3 581.0L742.0 587.8M742.1 588.0L742.0 587.8M1099.0 587.8L1098.7 588.0M1106.0 582.7L1099.0 587.8M1107.7 581.0L1106.0 582.7M80.8 588.0L81.0 595.0M574.0 590.4L568.0 595.0M578.1 588.0L574.0 590.4M611.0 588.0L616.0 590.2M623.0 592.2L616.0 590.2M630.0 592.8L623.0 592.2M637.0 591.5L630.0 592.8M644.0 588.4L637.0 591.5M644.6 588.0L644.0 588.4M742.1 588.0L746.5 595.0M1092.0 592.3L1088.5 595.0M1098.7 588.0L1092.0 592.3M81.0 595.0L80.1 602.0M567.0 596.1L562.4 602.0M568.0 595.0L567.0 596.1M746.5 595.0L749.0 598.7M751.8 602.0L749.0 598.7M1085.0 598.0L1080.9 602.0M1088.5 595.0L1085.0 598.0M80.1 602.0L78.1 609.0M560.0 605.0L557.2 609.0M562.4 602.0L560.0 605.0M751.8 602.0L756.0 605.6M762.0 609.0L756.0 605.6M1078.0 605.4L1075.0 609.0M1080.9 602.0L1078.0 605.4M77.0 612.0L75.5 616.0M78.1 609.0L77.0 612.0M553.0 613.0L550.1 616.0M557.2 609.0L553.0 613.0M762.0 609.0L763.0 609.4M770.0 612.6L763.0 609.4M777.0 615.4L770.0 612.6M778.7 616.0L777.0 615.4M1071.0 614.5L1069.7 616.0M1075.0 609.0L1071.0 614.5M75.5 616.0L73.0 623.0M546.0 619.3L542.2 623.0M550.1 616.0L546.0 619.3M778.7 616.0L784.0 617.6M791.0 619.0L784.0 617.6M798.0 619.9L791.0 619.0M805.0 620.2L798.0 619.9M812.0 619.7L805.0 620.2M819.0 618.7L812.0 619.7M826.0 617.5L819.0 618.7M833.0 616.6L826.0 617.5M840.0 616.2L833.0 616.6M847.0 616.8L840.0 616.2M854.0 619.4L847.0 616.8M860.4 623.0L854.0 619.4M1064.0 622.9L1063.9 623.0M1069.7 616.0L1064.0 622.9M73.0 623.0L71.2 630.0M539.0 625.8L534.7 630.0M542.2 623.0L539.0 625.8M860.4 623.0L861.0 623.3M868.0 628.1L861.0 623.3M870.6 630.0L868.0 628.1M1057.0 629.4L1056.0 630.0M1063.9 623.0L1057.0 629.4" stroke="oklch(0.585 0.233 277)" stroke-width="1.45" opacity="0.9"/>
<path d="M322.0 3.6L317.4 7.0M328.6 0.0L322.0 3.6M415.6 0.0L420.0 1.1M427.0 3.1L420.0 1.1M434.0 6.3L427.0 3.1M435.0 7.0L434.0 6.3M614.5 0.0L610.3 7.0M1005.8 0.0L1008.0 6.3M1008.3 7.0L1008.0 6.3M308.0 13.5L307.1 14.0M315.0 8.6L308.0 13.5M317.4 7.0L315.0 8.6M435.0 7.0L440.9 14.0M609.0 9.5L606.7 14.0M610.3 7.0L609.0 9.5M1008.3 7.0L1015.0 11.5M1019.8 14.0L1015.0 11.5M252.0 20.8L251.5 21.0M259.0 19.2L252.0 20.8M266.0 18.7L259.0 19.2M273.0 18.9L266.0 18.7M280.0 19.2L273.0 18.9M287.0 19.2L280.0 19.2M294.0 18.6L287.0 19.2M301.0 17.0L294.0 18.6M307.1 14.0L301.0 17.0M440.9 14.0L441.0 14.2M444.4 21.0L441.0 14.2M606.7 14.0L603.8 21.0M1019.8 14.0L1022.0 14.8M1029.0 16.7L1022.0 14.8M1036.0 18.3L1029.0 16.7M1043.0 19.7L1036.0 18.3M1050.0 20.8L1043.0 19.7M1051.4 21.0L1050.0 20.8M196.0 27.2L191.9 28.0M203.0 26.5L196.0 27.2M210.0 26.6L203.0 26.5M217.0 26.9L210.0 26.6M224.0 26.6L217.0 26.9M231.0 25.8L224.0 26.6M238.0 24.5L231.0 25.8M245.0 22.8L238.0 24.5M251.5 21.0L245.0 22.8M444.4 21.0L448.0 27.5M448.3 28.0L448.0 27.5M603.8 21.0L602.1 28.0M1051.4 21.0L1057.0 21.6M1064.0 21.9L1057.0 21.6M1071.0 21.9L1064.0 21.9M1078.0 21.9L1071.0 21.9M1085.0 22.0L1078.0 21.9M1092.0 22.6L1085.0 22.0M1099.0 23.8L1092.0 22.6M1106.0 25.9L1099.0 23.8M1111.6 28.0L1106.0 25.9M182.0 31.6L176.2 35.0M189.0 28.7L182.0 31.6M191.9 28.0L189.0 28.7M448.3 28.0L453.0 35.0M602.0 29.2L601.4 35.0M602.1 28.0L602.0 29.2M1111.6 28.0L1113.0 28.5M1120.0 31.2L1113.0 28.5M1127.0 34.2L1120.0 31.2M1128.8 35.0L1127.0 34.2M168.0 41.7L167.5 42.0M175.0 36.0L168.0 41.7M176.2 35.0L175.0 36.0M453.0 35.0L455.0 37.1M459.6 42.0L455.0 37.1M601.4 35.0L601.5 42.0M1128.8 35.0L1134.0 37.5M1141.0 41.1L1134.0 37.5M1142.6 42.0L1141.0 41.1M161.0 46.2L155.1 49.0M167.5 42.0L161.0 46.2M459.6 42.0L462.0 44.1M468.1 49.0L462.0 44.1M601.5 42.0L601.8 49.0M1142.6 42.0L1148.0 46.3M1150.5 49.0L1148.0 46.3M140.0 54.2L136.3 56.0M147.0 51.8L140.0 54.2M154.0 49.4L147.0 51.8M155.1 49.0L154.0 49.4M468.1 49.0L469.0 49.7M476.0 53.9L469.0 49.7M480.5 56.0L476.0 53.9M601.8 49.0L602.0 54.2M602.1 56.0L602.0 54.2M1150.5 49.0L1153.8 56.0M126.0 62.2L125.1 63.0M133.0 57.4L126.0 62.2M136.3 56.0L133.0 57.4M480.5 56.0L483.0 57.5M490.0 60.9L483.0 57.5M494.9 63.0L490.0 60.9M602.0 60.9L602.0 63.0M602.1 56.0L602.0 60.9M1153.8 56.0L1155.0 61.6M1155.3 63.0L1155.0 61.6M119.0 68.5L117.6 70.0M125.1 63.0L119.0 68.5M494.9 63.0L497.0 64.2M504.0 67.8L497.0 64.2M507.6 70.0L504.0 67.8M602.0 63.0L602.0 67.3M602.0 70.0L602.0 67.3M1155.3 63.0L1156.3 70.0M117.6 70.0L112.1 77.0M507.6 70.0L511.0 73.0M514.5 77.0L511.0 73.0M602.0 70.0L602.4 77.0M1156.3 70.0L1157.3 77.0M112.0 77.2L108.6 84.0M112.1 77.0L112.0 77.2M514.5 77.0L518.0 81.2M520.5 84.0L518.0 81.2M602.4 77.0L602.9 84.0M1157.3 77.0L1159.0 84.0M108.6 84.0L106.0 91.0M520.5 84.0L525.0 88.0M528.9 91.0L525.0 88.0M602.9 84.0L603.4 91.0M1159.0 84.0L1161.8 91.0M105.0 94.3L103.8 98.0M106.0 91.0L105.0 94.3M528.9 91.0L532.0 93.0M539.0 97.9L532.0 93.0M539.1 98.0L539.0 97.9M603.4 91.0L603.7 98.0M1161.8 91.0L1162.0 91.4M1167.2 98.0L1162.0 91.4M103.8 98.0L102.0 105.0M539.1 98.0L546.0 104.6M546.3 105.0L546.0 104.6M603.7 98.0L604.2 105.0M1167.2 98.0L1169.0 99.6M1176.0 104.8L1169.0 99.6M1176.3 105.0L1176.0 104.8M102.0 105.0L100.5 112.0M546.3 105.0L551.8 112.0M604.2 105.0L604.9 112.0M1176.3 105.0L1183.0 109.4M1187.5 112.0L1183.0 109.4M100.5 112.0L99.0 119.0M551.8 112.0L553.0 113.4M557.9 119.0L553.0 113.4M604.9 112.0L605.7 119.0M1187.5 112.0L1190.0 113.7M1195.9 119.0L1190.0 113.7M98.0 123.3L97.3 126.0M99.0 119.0L98.0 123.3M557.9 119.0L560.0 121.1M565.2 126.0L560.0 121.1M605.7 119.0L606.4 126.0M1195.9 119.0L1197.0 120.7M1199.4 126.0L1197.0 120.7M97.3 126.0L95.1 133.0M565.2 126.0L567.0 127.5M574.0 132.8L567.0 127.5M574.3 133.0L574.0 132.8M606.4 126.0L606.7 133.0M1199.4 126.0L1201.0 133.0M95.1 133.0L92.5 140.0M574.3 133.0L581.0 137.7M584.2 140.0L581.0 137.7M606.7 133.0L606.4 140.0M1201.0 133.0L1202.1 140.0M91.0 144.5L89.9 147.0M92.5 140.0L91.0 144.5M584.2 140.0L588.0 142.6M593.5 147.0L588.0 142.6M606.4 140.0L604.9 147.0M1202.1 140.0L1203.2 147.0M89.9 147.0L87.2 154.0M593.5 147.0L595.0 148.1M600.6 154.0L595.0 148.1M604.9 147.0L603.0 154.0M1203.2 147.0L1204.0 150.1M87.2 154.0L84.4 161.0M600.6 154.0L602.0 155.5M603.0 154.0L602.0 155.5M84.0 162.1L80.5 168.0M84.4 161.0L84.0 162.1M77.0 173.1L75.2 175.0M80.5 168.0L77.0 173.1M70.0 179.8L67.4 182.0M75.2 175.0L70.0 179.8M63.0 185.3L59.0 189.0M67.4 182.0L63.0 185.3M56.0 192.3L53.1 196.0M59.0 189.0L56.0 192.3M49.0 202.2L48.5 203.0M53.1 196.0L49.0 202.2M48.5 203.0L43.0 210.0M35.0 215.9L32.5 217.0M42.0 211.0L35.0 215.9M43.0 210.0L42.0 211.0M21.0 221.3L15.6 224.0M28.0 218.7L21.0 221.3M32.5 217.0L28.0 218.7M14.0 225.3L9.4 231.0M15.6 224.0L14.0 225.3M7.0 235.4L5.9 238.0M9.4 231.0L7.0 235.4M5.9 238.0L2.5 245.0M2.5 245.0L0.0 249.4M0.8 357.0L0.0 355.6M0.8 357.0L2.7 364.0M2.7 364.0L3.1 371.0M3.1 371.0L2.2 378.0M2.2 378.0L0.5 385.0M0.5 385.0L0.0 386.4M0.7 525.0L0.0 522.1M0.7 525.0L2.6 532.0M1204.0 527.7L1198.5 532.0M2.6 532.0L4.9 539.0M1197.0 533.8L1193.4 539.0M1198.5 532.0L1197.0 533.8M4.9 539.0L7.0 545.1M7.3 546.0L7.0 545.1M1193.4 539.0L1190.7 546.0M7.3 546.0L9.2 553.0M1190.0 548.2L1188.5 553.0M1190.7 546.0L1190.0 548.2M9.2 553.0L11.1 560.0M1188.5 553.0L1185.3 560.0M11.1 560.0L13.6 567.0M1183.0 563.7L1180.1 567.0M1185.3 560.0L1183.0 563.7M13.6 567.0L14.0 567.8M16.6 574.0L14.0 567.8M1176.0 571.7L1171.8 574.0M1180.1 567.0L1176.0 571.7M16.6 574.0L19.5 581.0M1162.0 579.8L1159.7 581.0M1169.0 576.6L1162.0 579.8M1171.8 574.0L1169.0 576.6M19.5 581.0L21.0 584.9M22.2 588.0L21.0 584.9M1155.0 584.5L1152.6 588.0M1159.7 581.0L1155.0 584.5M22.2 588.0L24.6 595.0M1148.0 592.8L1146.8 595.0M1152.6 588.0L1148.0 592.8M24.6 595.0L25.9 602.0M1141.0 600.8L1140.1 602.0M1146.8 595.0L1141.0 600.8M25.9 602.0L26.0 609.0M665.0 608.8L664.7 609.0M672.0 606.3L665.0 608.8M672.9 609.0L672.0 606.3M1134.0 607.1L1131.5 609.0M1140.1 602.0L1134.0 607.1M26.0 609.0L25.3 616.0M658.0 614.8L656.5 616.0M664.7 609.0L658.0 614.8M672.9 609.0L674.0 616.0M1127.0 612.1L1121.7 616.0M1131.5 609.0L1127.0 612.1M25.3 616.0L23.5 623.0M651.0 620.7L648.2 623.0M656.5 616.0L651.0 620.7M674.0 616.0L675.3 623.0M1120.0 617.5L1114.4 623.0M1121.7 616.0L1120.0 617.5M21.0 629.3L20.7 630.0M23.5 623.0L21.0 629.3M644.0 626.9L640.5 630.0M648.2 623.0L644.0 626.9M675.3 623.0L677.9 630.0M1113.0 624.4L1108.0 630.0M1114.4 623.0L1113.0 624.4" stroke="oklch(0.585 0.233 277)" stroke-width="1.32" opacity="0.9"/>
<path d="M161.0 4.6L155.5 7.0M168.0 1.9L161.0 4.6M174.5 0.0L168.0 1.9M465.5 0.0L467.9 7.0M588.0 0.5L583.8 7.0M588.4 0.0L588.0 0.5M1188.2 0.0L1189.1 7.0M147.0 11.2L142.1 14.0M154.0 7.6L147.0 11.2M155.5 7.0L154.0 7.6M467.9 7.0L469.0 10.0M470.4 14.0L469.0 10.0M581.0 12.1L580.1 14.0M583.8 7.0L581.0 12.1M1189.1 7.0L1190.0 11.1M1190.5 14.0L1190.0 11.1M133.0 20.5L132.4 21.0M140.0 15.4L133.0 20.5M142.1 14.0L140.0 15.4M470.4 14.0L473.9 21.0M580.1 14.0L577.8 21.0M1190.5 14.0L1192.3 21.0M126.0 26.0L123.4 28.0M132.4 21.0L126.0 26.0M473.9 21.0L476.0 23.7M479.9 28.0L476.0 23.7M577.8 21.0L576.7 28.0M1192.3 21.0L1193.3 28.0M119.0 31.3L113.6 35.0M123.4 28.0L119.0 31.3M479.9 28.0L483.0 30.5M490.0 34.7L483.0 30.5M490.7 35.0L490.0 34.7M576.7 28.0L576.4 35.0M1193.3 28.0L1193.3 35.0M105.0 40.8L103.2 42.0M112.0 36.1L105.0 40.8M113.6 35.0L112.0 36.1M490.7 35.0L497.0 37.5M504.0 39.4L497.0 37.5M511.0 41.2L504.0 39.4M513.5 42.0L511.0 41.2M576.4 35.0L576.6 42.0M1193.3 35.0L1192.6 42.0M98.0 46.0L94.5 49.0M103.2 42.0L98.0 46.0M513.5 42.0L518.0 43.9M525.0 48.4L518.0 43.9M525.7 49.0L525.0 48.4M576.6 42.0L577.0 49.0M1192.6 42.0L1191.7 49.0M91.0 53.0L88.7 56.0M94.5 49.0L91.0 53.0M525.7 49.0L532.0 55.4M532.5 56.0L532.0 55.4M577.0 49.0L577.2 56.0M1191.7 49.0L1190.9 56.0M88.7 56.0L84.5 63.0M532.5 56.0L538.7 63.0M577.2 56.0L576.9 63.0M1190.9 56.0L1190.6 63.0M84.0 64.2L82.0 70.0M84.5 63.0L84.0 64.2M538.7 63.0L539.0 63.3M545.4 70.0L539.0 63.3M576.9 63.0L576.7 70.0M1190.6 63.0L1192.4 70.0M82.0 70.0L80.3 77.0M545.4 70.0L546.0 70.6M552.3 77.0L546.0 70.6M576.7 70.0L577.3 77.0M1192.4 70.0L1197.0 75.8M1198.5 77.0L1197.0 75.8M80.3 77.0L78.8 84.0M552.3 77.0L553.0 77.7M558.8 84.0L553.0 77.7M577.3 77.0L578.4 84.0M1198.5 77.0L1204.0 79.8M77.0 90.3L76.8 91.0M78.8 84.0L77.0 90.3M558.8 84.0L560.0 85.4M564.7 91.0L560.0 85.4M578.4 84.0L579.6 91.0M76.8 91.0L73.3 98.0M564.7 91.0L567.0 93.7M570.7 98.0L567.0 93.7M579.6 91.0L580.6 98.0M70.0 104.5L69.7 105.0M73.3 98.0L70.0 104.5M570.7 98.0L574.0 101.7M580.6 98.0L581.0 99.3M579.3 105.0L574.0 101.7M582.0 105.0L581.0 99.3M69.7 105.0L65.2 112.0M579.3 105.0L581.0 106.6M582.0 105.0L581.0 106.6M63.0 115.0L59.5 119.0M65.2 112.0L63.0 115.0M56.0 122.6L52.6 126.0M59.5 119.0L56.0 122.6M49.0 129.4L45.4 133.0M52.6 126.0L49.0 129.4M42.0 136.4L38.4 140.0M45.4 133.0L42.0 136.4M35.0 142.9L30.2 147.0M38.4 140.0L35.0 142.9M28.0 149.0L22.8 154.0M30.2 147.0L28.0 149.0M21.0 156.3L17.7 161.0M22.8 154.0L21.0 156.3M17.7 161.0L14.4 168.0M14.0 169.0L11.8 175.0M14.4 168.0L14.0 169.0M11.8 175.0L8.9 182.0M7.0 184.3L2.6 189.0M8.9 182.0L7.0 184.3M2.6 189.0L0.0 190.9M1204.0 604.0L1202.6 609.0M1202.6 609.0L1199.7 616.0M1197.0 619.8L1194.0 623.0M1199.7 616.0L1197.0 619.8M1183.0 629.6L1181.7 630.0M1190.0 626.0L1183.0 629.6M1194.0 623.0L1190.0 626.0" stroke="oklch(0.44 0.19 277)" stroke-width="1.19" opacity="0.9"/>
<path d="M112.0 6.7L111.5 7.0M119.0 1.6L112.0 6.7M121.4 0.0L119.0 1.6M489.1 0.0L490.0 1.8M493.4 7.0L490.0 1.8M539.0 6.4L537.3 7.0M546.0 5.5L539.0 6.4M552.0 7.0L546.0 5.5M560.0 2.2L553.9 7.0M560.6 0.0L560.0 2.2M105.0 11.8L101.9 14.0M111.5 7.0L105.0 11.8M493.4 7.0L497.0 11.8M499.7 14.0L497.0 11.8M532.0 9.9L525.3 14.0M537.3 7.0L532.0 9.9M552.0 7.0L553.0 7.4M553.9 7.0L553.0 7.4M98.0 16.8L91.7 21.0M101.9 14.0L98.0 16.8M499.7 14.0L504.0 16.4M511.0 17.9L504.0 16.4M518.0 17.0L511.0 17.9M525.0 14.2L518.0 17.0M525.3 14.0L525.0 14.2M84.0 26.3L81.8 28.0M91.0 21.5L84.0 26.3M91.7 21.0L91.0 21.5M77.0 32.2L74.4 35.0M81.8 28.0L77.0 32.2M70.0 40.9L69.3 42.0M74.4 35.0L70.0 40.9M69.3 42.0L65.7 49.0M63.0 55.4L62.7 56.0M65.7 49.0L63.0 55.4M62.7 56.0L59.4 63.0M56.0 68.8L55.1 70.0M59.4 63.0L56.0 68.8M49.0 77.0L49.0 77.0M55.1 70.0L49.0 77.0M42.0 82.3L38.8 84.0M49.0 77.0L42.0 82.3M21.0 91.0L21.0 91.0M28.0 88.9L21.0 91.0M35.0 86.2L28.0 88.9M38.8 84.0L35.0 86.2M7.0 96.6L4.5 98.0M14.0 93.6L7.0 96.6M21.0 91.0L14.0 93.6M4.5 98.0L0.0 102.6" stroke="oklch(0.44 0.19 277)" stroke-width="1.06" opacity="0.9"/>
<path d="M84.0 1.9L77.7 7.0M86.5 0.0L84.0 1.9M70.0 13.2L69.0 14.0M77.0 7.5L70.0 13.2M77.7 7.0L77.0 7.5M63.0 19.5L61.4 21.0M69.0 14.0L63.0 19.5M56.0 27.3L55.4 28.0M61.4 21.0L56.0 27.3M55.4 28.0L50.7 35.0M49.0 38.2L46.7 42.0M50.7 35.0L49.0 38.2M46.7 42.0L42.6 49.0M42.0 49.9L36.7 56.0M42.6 49.0L42.0 49.9M28.0 62.1L26.2 63.0M35.0 57.5L28.0 62.1M36.7 56.0L35.0 57.5M7.0 69.8L6.4 70.0M14.0 67.6L7.0 69.8M21.0 65.2L14.0 67.6M26.2 63.0L21.0 65.2M6.4 70.0L0.0 72.1" stroke="oklch(0.44 0.19 277)" stroke-width="0.93" opacity="0.9"/>
</g>
<defs><linearGradient id="f" x1="0" y1="0" x2="0" y2="1"><stop offset="0.4" stop-color="#141312" stop-opacity="0"/><stop offset="0.95" stop-color="#141312" stop-opacity="0.85"/></linearGradient></defs>
<rect width="1200" height="630" fill="url(#f)"/>
</svg>
